<?xml version="1.0" encoding="UTF-8"?>
<svg xmlns="http://www.w3.org/2000/svg" viewBox="0 0 1601 1001">
  <defs>
    <style>
      .cls-1 {
        fill: none;
      }

      .cls-1, .cls-2 {
        stroke: #fff;
        stroke-miterlimit: 10;
        stroke-width: 8px;
      }

      .cls-3 {
        stroke-width: 0px;
      }

      .cls-3, .cls-2 {
        fill: #fff;
      }
    </style>
  </defs>
  <g id="demi_etoile" data-name="demi etoile">
    <path class="cls-3" d="m1276.16,317.11s-27.36,95.98-12.01,125.39,29.84,38.41,12.01,88.71l-66.53,36.61s-21.14,3.05-24.72-10.19,9.53-76.76,9.53-76.76l-55.89-54s-9.68-20.79,11.72-25.27,74.35-12.85,74.35-12.85c-8.14.7,23.29-83.65,51.54-71.63Z"/>
  </g>
  <g id="Calque_1" data-name="Calque 1">
    <path class="cls-2" d="m347.69,563.13l-57.89-29.03c-4.43-2.22-9.66-2.12-14,.27l-56.73,31.23c-10.92,6.01-24-3.11-22.13-15.43l9.72-64.03c.74-4.9-.97-9.84-4.58-13.23l-47.24-44.3c-9.09-8.53-4.46-23.78,7.84-25.82l63.9-10.55c4.89-.81,9.06-3.96,11.17-8.45l27.54-58.61c5.3-11.29,21.24-11.59,26.97-.52l29.77,57.51c2.28,4.4,6.57,7.39,11.48,8.01l64.25,8.08c12.37,1.55,17.59,16.62,8.83,25.49l-45.49,46.09c-3.48,3.52-5,8.53-4.07,13.4l12.18,63.61c2.34,12.25-10.37,21.86-21.52,16.28Z"/>
    <path class="cls-2" d="m676.45,563.13l-57.89-29.03c-4.43-2.22-9.66-2.12-14,.27l-56.73,31.23c-10.92,6.01-24-3.11-22.13-15.43l9.72-64.03c.74-4.9-.97-9.84-4.58-13.23l-47.24-44.3c-9.09-8.53-4.46-23.78,7.84-25.82l63.9-10.55c4.89-.81,9.06-3.96,11.17-8.45l27.54-58.61c5.3-11.29,21.24-11.59,26.97-.52l29.77,57.51c2.28,4.4,6.57,7.39,11.48,8.01l64.25,8.08c12.37,1.55,17.59,16.62,8.83,25.49l-45.49,46.09c-3.48,3.52-5,8.53-4.07,13.4l12.18,63.61c2.34,12.25-10.37,21.86-21.52,16.28Z"/>
    <path class="cls-2" d="m1005.22,563.13l-57.89-29.03c-4.43-2.22-9.66-2.12-14,.27l-56.73,31.23c-10.92,6.01-24-3.11-22.13-15.43l9.72-64.03c.74-4.9-.97-9.84-4.58-13.23l-47.24-44.3c-9.09-8.53-4.46-23.78,7.84-25.82l63.9-10.55c4.89-.81,9.06-3.96,11.17-8.45l27.54-58.61c5.3-11.29,21.24-11.59,26.97-.52l29.77,57.51c2.28,4.4,6.57,7.39,11.48,8.01l64.25,8.08c12.37,1.55,17.59,16.62,8.83,25.49l-45.49,46.09c-3.48,3.52-5,8.53-4.07,13.4l12.18,63.61c2.34,12.25-10.37,21.86-21.52,16.28Z"/>
    <path class="cls-1" d="m1333.98,563.13l-57.89-29.03c-4.43-2.22-9.66-2.12-14,.27l-56.73,31.23c-10.92,6.01-24-3.11-22.13-15.43l9.72-64.03c.74-4.9-.97-9.84-4.58-13.23l-47.24-44.3c-9.09-8.53-4.46-23.78,7.84-25.82l63.9-10.55c4.89-.81,9.06-3.96,11.17-8.45l27.54-58.61c5.3-11.29,21.24-11.59,26.97-.52l29.77,57.51c2.28,4.4,6.57,7.39,11.48,8.01l64.25,8.08c12.37,1.55,17.59,16.62,8.83,25.49l-45.49,46.09c-3.48,3.52-5,8.53-4.07,13.4l12.18,63.61c2.34,12.25-10.37,21.86-21.52,16.28Z"/>
  </g>
</svg>