<?xml version="1.0" encoding="utf-8"?>
<!-- Generator: Adobe Illustrator 28.1.0, SVG Export Plug-In . SVG Version: 6.00 Build 0)  -->
<svg version="1.1" xmlns="http://www.w3.org/2000/svg" xmlns:xlink="http://www.w3.org/1999/xlink" x="0px" y="0px"
	 viewBox="0 0 500 500" style="enable-background:new 0 0 500 500;" xml:space="preserve">
<style type="text/css">
	.st0{fill:#D3F0EE;}
	.st1{clip-path:url(#SVGID_00000115496029257105896840000005471624883556134821_);fill:#FFFFFF;}
	.st2{clip-path:url(#SVGID_00000115496029257105896840000005471624883556134821_);fill:#F4AEA6;}
	.st3{fill:#47849A;}
</style>
<g id="Calque_1">
	<g>
		<rect class="st0" width="500" height="500"/>
	</g>
	<g>
		<defs>
			<rect id="SVGID_1_" width="500" height="500"/>
		</defs>
		<clipPath id="SVGID_00000131325117632471288980000001785309565576846254_">
			<use xlink:href="#SVGID_1_"  style="overflow:visible;"/>
		</clipPath>
		<path style="clip-path:url(#SVGID_00000131325117632471288980000001785309565576846254_);fill:#FFFFFF;" d="M-176.4,167.1
			c35.9,54.8-41.8,119.3-53.4,159.8c-19.6,68.2,34.2,121.1,130.4,63.8c45.8-27.3,174.5,92,242,106.9c53.7,11.9,207.2-26.6,180.5-101
			c-29.3-81.4-154.8-20.1-238.8-100.8c-37.6-36.2-44.1-97.5-14.6-125.7C87.4,153.3,176,52.7,139.6,24.2C103.3-4.1-85.2,83-80.3-0.1
			s-32.7-59.7-68.5-41.7c-19.4,9.8-99.2,65.6-98.5,133C-246.6,148.4-186.2,152.1-176.4,167.1z"/>
		<path style="clip-path:url(#SVGID_00000131325117632471288980000001785309565576846254_);fill:#F4AEA6;" d="M722.8-38.3
			C701.4-61.2,590-17.5,516.9,18.1C406.3,71.8,244.6-5.8,206.5,107.7c-47.1,140.4,68.9,103.1,114.9,151.6
			c24.6,25.9,31.9,8.9,29.9,108.1c-1.8,89.9,134.8,176.8,255.8,131.1c75.2-28.3,58.9-103.1,26.7-185.9
			C564.5,134.6,821,66.6,722.8-38.3z"/>
	</g>
</g>
<g id="Calque_2">
	<path class="st3" d="M357.2,238.8c8.6,5,8.6,17.3,0,22.3L250,323l-107.2,61.9c-8.6,5-19.3-1.2-19.3-11.2l0-123.8l0-123.8
		c0-9.9,10.7-16.1,19.3-11.2L250,177L357.2,238.8z"/>
	<g>
		<path class="st3" d="M159.6,20.7c0,2-0.7,3.6-2.1,4.7s-2.9,1.7-4.7,1.7c-0.6,0-1.2-0.1-1.8-0.2c-0.1-0.3-0.3-0.6-0.5-1.1l0.3-0.3
			c0.4,0.1,0.8,0.2,1.1,0.2c1,0,1.8-0.3,2.4-1s0.9-1.7,0.9-2.9c0-2.7-1.2-4.1-3.7-4.1c-0.3,0-0.9,0.1-1.8,0.2
			c-0.1,0.2-0.1,1.8-0.1,4.8v7.7c0,2.3,0.1,3.8,0.2,4.5c0,0.3,0.2,0.5,0.5,0.5c0.1,0,0.8,0.1,2,0.1l0.2,0.2v1l-0.1,0.1
			c-1.3-0.1-2.9-0.1-4.8-0.1c-2.1,0-3.6,0-4.5,0.1l-0.1-0.1v-1l0.2-0.2c1-0.1,1.6-0.1,1.7-0.1c0.3-0.1,0.4-0.3,0.5-0.5
			c0.1-0.7,0.2-2.2,0.2-4.5v-7.7c0-2.3-0.1-3.8-0.2-4.5c0-0.3-0.2-0.5-0.5-0.5c-0.1,0-0.7-0.1-1.7-0.1l-0.1-0.2v-1l0.2-0.1
			c1,0.1,2.4,0.1,4.4,0.1c0.8,0,2,0,3.5,0s2.4,0,2.7,0c2.7,0,4.4,0.7,5.2,2C159.4,18.8,159.6,19.7,159.6,20.7z"/>
		<path class="st3" d="M172,22.6l-0.1,2.6c0,0.4,0,0.9-0.1,1.5l-0.6,0.2c-0.5-0.7-1.1-1-1.9-1c-0.7,0-1.3,0.3-1.8,0.9
			c-0.3,0.4-0.4,0.9-0.4,1.6v3.4c0,0.7,0,1.7,0.1,3c0,0.4,0.1,0.6,0.3,0.7s0.9,0.2,2,0.2l0.1,0.1v0.9l-0.1,0.1
			c-1.4-0.1-2.9-0.1-4.3-0.1c-1.7,0-3.1,0-4,0.1l-0.1-0.1v-0.9l0.1-0.1c0.9,0,1.5-0.1,1.7-0.2c0.2-0.1,0.3-0.3,0.3-0.7
			c0.1-1.3,0.1-2.6,0.1-4.1v-2.1c0-2-0.1-3.1-0.2-3.4c-0.1-0.2-0.3-0.3-0.6-0.4c-0.1,0-0.5,0-1.3-0.1l-0.1-0.1v-0.8l0.1-0.2
			c1.8-0.2,3.6-0.6,5.6-1.2l0.3,0.2l0,2.9c0.6-0.7,1.3-1.5,2.2-2.5c0.4-0.4,0.9-0.6,1.6-0.6C171.4,22.4,171.7,22.5,172,22.6z"/>
		<path class="st3" d="M186,28.5c0,0.2,0,0.4,0,0.7l-0.2,0.2c-1.3,0.4-3,0.5-5.1,0.5c-0.4,0-1,0-1.7,0s-1.4,0-1.7,0
			c0.1,1.4,0.5,2.6,1.3,3.6c0.9,1,2,1.5,3.4,1.5c0.9,0,2.1-0.3,3.3-1l0.4,0.4L185,36c-1.4,0.9-3,1.4-4.6,1.4c-2.2,0-3.9-0.6-5.1-1.9
			s-1.8-3-1.8-5.3c0-2.7,0.6-4.6,1.9-5.6c1.8-1.4,3.5-2.1,5.1-2.1c1.7,0,3.1,0.5,4.1,1.5C185.5,25.1,186,26.6,186,28.5z M182.2,28.1
			c0-2.6-0.8-4-2.5-4c-1.7,0-2.6,1.3-2.6,3.9v0.3c0.6,0.1,1.6,0.1,3,0.1c0.8,0,1.4,0,2-0.1C182.2,28.3,182.2,28.2,182.2,28.1z"/>
		<path class="st3" d="M203.4,23.9l-0.1,0.2c-0.6,0-1,0.1-1.2,0.2c-0.1,0.1-0.3,0.3-0.5,0.6s-0.6,1.1-1.1,2.4l-2.8,6.5
			c-0.1,0.2-0.5,1.3-1.3,3.1h-2.6c-0.5-1.5-1.1-3.1-1.8-4.7c-1-2.6-1.9-4.8-2.6-6.6c-0.3-0.8-0.7-1.3-1-1.4
			c-0.2-0.1-0.5-0.1-0.9-0.1l-0.2-0.2v-0.8l0.2-0.1c0.9,0,2.2,0,3.9,0c1.5,0,2.7,0,3.5,0l0.2,0.1v0.9l-0.2,0.2
			c-0.7,0-1.2,0.1-1.4,0.1s-0.3,0.2-0.3,0.4c0,0.3,0.6,2,1.8,5.2c0.6,1.7,1,2.7,1.2,3.2c0.6-1.5,1.2-2.9,1.8-4.3
			c0.9-2.3,1.4-3.6,1.4-4c0-0.2-0.1-0.3-0.3-0.4s-0.7-0.1-1.4-0.1l-0.2-0.1v-0.9l0.2-0.1c0.8,0,1.6,0,2.7,0c1.1,0,2.1,0,2.8,0
			l0.1,0.1V23.9z"/>
		<path class="st3" d="M212.9,36.7l-0.1,0.1c-0.9-0.1-2.3-0.1-4-0.1s-3.1,0-4,0.1l-0.1-0.1v-0.9l0.1-0.1c0.9,0,1.5-0.1,1.7-0.2
			c0.2-0.1,0.3-0.3,0.3-0.7c0.1-1.3,0.1-2.6,0.1-4.1v-2.1c0-1.9-0.1-3-0.2-3.4c-0.1-0.2-0.3-0.3-0.6-0.4c-0.1,0-0.5,0-1.3-0.1
			l-0.1-0.1v-0.8l0.1-0.2c1.9-0.2,3.8-0.6,5.7-1.2l0.3,0.2c-0.1,1.8-0.2,3.3-0.2,4.5v4.7c0,0.7,0,1.7,0.1,3c0,0.4,0.1,0.6,0.3,0.7
			c0.2,0.1,0.8,0.2,1.7,0.2l0.2,0.1V36.7z M210.8,17.6c0,0.6-0.2,1.2-0.7,1.6s-1,0.7-1.6,0.7c-0.6,0-1.2-0.2-1.6-0.7s-0.7-1-0.7-1.6
			c0-0.6,0.2-1.2,0.7-1.6s1-0.7,1.6-0.7c0.6,0,1.1,0.2,1.6,0.7S210.8,16.9,210.8,17.6z"/>
		<path class="st3" d="M227.6,28.5c0,0.2,0,0.4,0,0.7l-0.2,0.2c-1.3,0.4-3,0.5-5.1,0.5c-0.4,0-1,0-1.7,0s-1.4,0-1.7,0
			c0.1,1.4,0.5,2.6,1.3,3.6c0.9,1,2,1.5,3.4,1.5c0.9,0,2.1-0.3,3.3-1l0.4,0.4l-0.6,1.5c-1.4,0.9-3,1.4-4.6,1.4
			c-2.2,0-3.9-0.6-5.1-1.9s-1.8-3-1.8-5.3c0-2.7,0.6-4.6,1.9-5.6c1.8-1.4,3.5-2.1,5.1-2.1c1.7,0,3.1,0.5,4.1,1.5
			C227.2,25.1,227.6,26.6,227.6,28.5z M223.8,28.1c0-2.6-0.8-4-2.5-4c-1.7,0-2.6,1.3-2.6,3.9v0.3c0.6,0.1,1.6,0.1,3,0.1
			c0.8,0,1.4,0,2-0.1C223.8,28.3,223.8,28.2,223.8,28.1z"/>
		<path class="st3" d="M253.3,23.9l-0.2,0.1c-0.6,0-0.9,0.1-1.1,0.1s-0.3,0.2-0.4,0.3c-0.1,0.2-0.3,0.7-0.6,1.5c-0.4,1-0.7,2-1.1,3
			l-1.7,5.1c-0.1,0.4-0.3,0.9-0.4,1.4l-0.4,1.4H245l-1.6-3.9l-2.4-5.4c-1.3,2.8-2.5,5.5-3.6,8.1l-0.5,1.2h-2.4
			c0-0.1-0.1-0.4-0.3-1.1c-0.1-0.4-0.2-0.9-0.4-1.4l-2.2-7.7c-0.3-1.1-0.5-1.8-0.7-2.1c-0.1-0.2-0.2-0.3-0.4-0.4s-0.6-0.1-1.4-0.2
			l-0.1-0.2v-0.9l0.2-0.1c0.8,0,2,0,3.8,0c1.8,0,3.1,0,4,0l0.2,0.1v0.9l-0.2,0.1c-0.8,0-1.3,0-1.5,0.1s-0.4,0.2-0.4,0.4
			c0,0.2,0,0.5,0.1,0.9l1.8,6.8l3.5-7.8c0.2-0.6,0.5-1.2,0.8-1.9h1.5l4.1,9.7l1.4-4.4c0.5-1.6,0.8-2.7,0.8-3.2
			c0-0.2-0.1-0.4-0.2-0.5s-0.7-0.1-1.6-0.2l-0.2-0.1v-0.9l0.2-0.2c0.7,0,1.7,0,3,0c1,0,1.8,0,2.6,0l0.2,0.1V23.9z"/>
		<path class="st3" d="M282.7,36.7l-0.1,0.1c-2.2-0.1-3.5-0.1-3.9-0.1c-1.8,0-3.5,0-5,0.1l-0.1-0.1v-0.9l0.1-0.2l1.3-0.1
			c0.5,0,0.8-0.2,0.8-0.6c0-0.2-0.1-0.7-0.4-1.4l-1.2-3.1c-1.3,0-2.7,0-4.1,0c-0.8,0-1.9,0-3.4,0l-0.6,1.8c-0.5,1.4-0.7,2.2-0.7,2.5
			c0,0.4,0.2,0.6,0.7,0.7c0.3,0,0.8,0.1,1.5,0.1l0.1,0.1v0.9l-0.1,0.1c-1.8-0.1-3-0.1-3.5-0.1c-0.4,0-1.4,0-3,0.1l-0.1-0.1v-1
			l0.2-0.1c1-0.1,1.6-0.3,1.9-0.6c0.2-0.3,1.1-2.4,2.6-6.1l3.8-9.6c0.3-0.7,0.7-1.9,1.3-3.4h2.1l7.8,18.3c0.3,0.7,0.6,1.1,0.8,1.2
			c0.3,0.1,0.8,0.2,1.4,0.2l0.1,0.2V36.7z M273.4,28.8l-3.1-7.7l-3,7.7c0.8,0,1.8,0,3.1,0C271.7,28.8,272.7,28.8,273.4,28.8z"/>
		<path class="st3" d="M298.9,36.7l-0.1,0.1c-1.5,0-2.4-0.1-2.8-0.1c-0.3,0-0.8,0-1.4,0s-1.1,0-1.4,0l-0.1-0.1
			c0.1-0.8,0.1-1.6,0.1-2.3c-0.5,0.4-1.4,1.2-2.7,2.4c-0.6,0.2-1.3,0.4-2,0.4c-1.3,0-2.4-0.4-3.1-1.1s-1.1-1.8-1.1-3.1
			c0-0.2,0-0.5,0-1.1s0-1.1,0-1.6v-1.9c0-1.9-0.1-3.1-0.2-3.4c-0.1-0.2-0.3-0.3-0.6-0.4c-0.1,0-0.5,0-1.3-0.1l-0.1-0.1v-0.8l0.1-0.2
			c1.9-0.2,3.8-0.6,5.7-1.2l0.3,0.2c-0.1,1.6-0.2,3.1-0.2,4.5v2.9c0,1.3,0,2.3,0.1,2.7c0.1,0.6,0.3,1,0.7,1.3
			c0.4,0.3,0.9,0.5,1.5,0.5c0.8,0,1.4-0.2,2-0.7c0.5-0.5,0.8-1,0.9-1.7c0-0.5,0-0.8,0-0.9v-2.6c0-1.9-0.1-3-0.2-3.4
			c-0.1-0.2-0.3-0.3-0.6-0.4c-0.1,0-0.5,0-1.3-0.1l-0.2-0.1v-0.8l0.2-0.2c1.9-0.2,3.7-0.6,5.7-1.2l0.3,0.2c-0.1,1.5-0.2,3-0.2,4.5
			v4.6c0,2.1,0.1,3.2,0.2,3.5c0.1,0.1,0.2,0.2,0.3,0.3c0.2,0.1,0.7,0.1,1.5,0.2l0.2,0.1V36.7z"/>
		<path class="st3" d="M317.2,36.7l-0.1,0.1c-1-0.1-1.8-0.1-2.6-0.1c-0.7,0-1.7,0-3,0.1l-0.1-0.1c0-0.5,0.1-1.3,0.1-2.4
			c-0.4,0.3-0.9,0.7-1.5,1.3c-0.8,0.8-1.3,1.2-1.6,1.3c-0.3,0.1-0.8,0.2-1.5,0.2c-1.7,0-3-0.6-4-1.9s-1.5-2.9-1.5-4.9
			c0-1.9,0.4-3.5,1.2-4.5c0.2-0.3,0.8-0.8,1.8-1.5c1.2-0.8,2-1.4,2.6-1.6c0.5-0.2,1.1-0.3,1.8-0.3c1,0,2,0.2,2.8,0.6v-0.8
			c0-2.6-0.1-4.1-0.2-4.5c-0.1-0.3-0.3-0.4-0.6-0.5c-0.2,0-0.6-0.1-1.3-0.1l-0.1-0.2v-0.8l0.1-0.2c1.9-0.2,3.8-0.6,5.7-1.2l0.3,0.2
			c0,0,0,0.5-0.1,1.5c-0.1,2.1-0.1,5.3-0.1,9.5v4.7c0,2.7,0.1,4.3,0.2,4.5c0.1,0.2,0.2,0.3,0.3,0.3c0.2,0.1,0.7,0.1,1.5,0.2l0.1,0.1
			V36.7z M311.4,29v-2.8c-0.7-0.8-1.4-1.4-2-1.6c-0.4-0.2-0.9-0.2-1.4-0.2c-1.3,0-2.2,0.7-2.6,2.1c-0.2,0.8-0.3,1.6-0.3,2.6
			c0,2,0.5,3.5,1.4,4.5c0.5,0.5,1.2,0.8,2,0.8c0.7,0,1.3-0.2,1.9-0.7c0.5-0.4,0.9-0.8,1-1.3C311.4,32.3,311.4,31.2,311.4,29z"/>
		<path class="st3" d="M327.1,36.7l-0.1,0.1c-0.9-0.1-2.3-0.1-4-0.1s-3.1,0-4,0.1l-0.1-0.1v-0.9l0.1-0.1c0.9,0,1.5-0.1,1.7-0.2
			c0.2-0.1,0.3-0.3,0.3-0.7c0.1-1.3,0.1-2.6,0.1-4.1v-2.1c0-1.9-0.1-3-0.2-3.4c-0.1-0.2-0.3-0.3-0.6-0.4c-0.1,0-0.5,0-1.3-0.1
			l-0.1-0.1v-0.8l0.1-0.2c1.9-0.2,3.8-0.6,5.7-1.2l0.3,0.2c-0.1,1.8-0.2,3.3-0.2,4.5v4.7c0,0.7,0,1.7,0.1,3c0,0.4,0.1,0.6,0.3,0.7
			c0.2,0.1,0.8,0.2,1.7,0.2l0.2,0.1V36.7z M325.1,17.6c0,0.6-0.2,1.2-0.7,1.6s-1,0.7-1.6,0.7c-0.6,0-1.2-0.2-1.6-0.7s-0.7-1-0.7-1.6
			c0-0.6,0.2-1.2,0.7-1.6s1-0.7,1.6-0.7c0.6,0,1.1,0.2,1.6,0.7S325.1,16.9,325.1,17.6z"/>
		<path class="st3" d="M343.4,29.5c0,3.5-1.2,5.8-3.5,7c-1.1,0.6-2.4,0.9-3.9,0.9c-2.2,0-4-0.6-5.1-1.9s-1.8-3.2-1.8-5.6
			c0-3.3,1.1-5.6,3.4-6.7c1.1-0.5,2.4-0.8,3.9-0.8c3.1,0,5.2,1.1,6.2,3.2C343.2,26.6,343.4,27.9,343.4,29.5z M339.4,30.7
			c0-2.4-0.3-4.2-0.8-5.2s-1.3-1.6-2.4-1.6c-1.9,0-2.9,1.8-2.9,5.3c0,4.5,1.1,6.8,3.3,6.8c1.4,0,2.2-0.7,2.6-2.2
			C339.3,32.9,339.4,31.9,339.4,30.7z"/>
		<path class="st3" d="M356.9,32.1c0,1.6-0.6,2.8-1.8,3.8c-1.2,1-2.7,1.4-4.7,1.4c-1.4,0-2.8-0.3-4.4-0.9l-0.2-0.2
			c0.1-0.9,0.1-1.6,0.2-2.1l0.1-1.8l0.1-0.2h0.9l0.2,0.2c0,1.1,0.1,1.7,0.1,1.9c0.8,1.1,1.9,1.6,3.3,1.6c0.9,0,1.5-0.2,2.1-0.6
			s0.8-1,0.8-1.7c0-0.9-0.4-1.5-1.2-1.8c-0.3-0.1-1-0.3-2-0.5c-1.6-0.3-2.7-0.7-3.2-1.2c-0.8-0.7-1.2-1.6-1.2-2.9
			c0-1.4,0.5-2.6,1.5-3.4c1.1-0.9,2.5-1.3,4.4-1.3c1.6,0,2.9,0.3,3.9,0.8l0.1,0.2c-0.1,0.4-0.2,1.6-0.2,3.4l-0.2,0.1h-0.8l-0.2-0.1
			c0-0.7-0.1-1.3-0.2-1.7c-0.6-0.8-1.5-1.2-2.7-1.2c-0.8,0-1.4,0.2-1.9,0.6S349,25.4,349,26c0,0.8,0.4,1.4,1.2,1.6
			c0.4,0.1,1.1,0.3,2.2,0.5c1.6,0.3,2.7,0.7,3.3,1.1C356.5,29.8,356.9,30.8,356.9,32.1z"/>
	</g>
</g>
</svg>
