<?xml version="1.0" encoding="UTF-8"?>
<svg id="Calque_2" data-name="Calque 2" xmlns="http://www.w3.org/2000/svg" viewBox="0 0 180.74 141.55">
  <defs>
    <style>
      .cls-1 {
        stroke-width: 5px;
      }

      .cls-1, .cls-2 {
        fill: none;
        stroke: #4d8399;
        stroke-linecap: round;
        stroke-miterlimit: 10;
      }

      .cls-2 {
        stroke-width: 7px;
      }
    </style>
  </defs>
  <path class="cls-2" d="m80.24,122.81l.59-92.9c.02-3.17-1.29-6.2-3.65-8.32C68.38,13.67,44.3-3.6,10.63,7.05c-4.32,1.36-7.23,5.4-7.13,9.93l2.13,96.82c.1,4.44,4.07,7.81,8.46,7.12,11.99-1.87,35.24-3.38,57.9,7.12,3.85,1.78,8.25-.98,8.25-5.22Z"/>
  <path class="cls-1" d="m18.42,24.05s20.28-11.21,45.08,8.63"/>
  <path class="cls-1" d="m16.37,43.84s17.36-9.92,47.13,6.2"/>
  <path class="cls-2" d="m95.24,122.81l-.59-92.9c-.02-3.17,1.29-6.2,3.65-8.32,8.8-7.92,32.89-25.2,66.55-14.55,4.32,1.36,7.23,5.4,7.13,9.93l-2.13,96.82c-.1,4.44-4.07,7.81-8.46,7.12-11.99-1.87-35.24-3.38-57.9,7.12-3.85,1.78-8.25-.98-8.25-5.22Z"/>
  <path class="cls-1" d="m157.07,24.05s-20.28-11.21-45.08,8.63"/>
  <path class="cls-1" d="m159.12,43.84s-17.36-9.92-47.13,6.2"/>
</svg>