<?xml version="1.0" encoding="utf-8"?>
<!-- Generator: Adobe Illustrator 28.1.0, SVG Export Plug-In . SVG Version: 6.00 Build 0)  -->
<svg version="1.1" xmlns="http://www.w3.org/2000/svg" xmlns:xlink="http://www.w3.org/1999/xlink" x="0px" y="0px"
	 viewBox="0 0 500 500" style="enable-background:new 0 0 500 500;" xml:space="preserve">
<style type="text/css">
	.st0{fill:#D3F0EE;}
	.st1{fill:#4D8399;}
	.st2{fill:#F4AEA6;}
</style>
<g id="Calque_2">
	<rect y="0" class="st0" width="500" height="500"/>
</g>
<g id="Calque_1">
	<g>
		<path class="st1" d="M167.19,60.18v172.88H7.18V60.18H167.19 M168.36,59H6v175.23h162.36V59L168.36,59z"/>
	</g>
	<g>
		<path class="st1" d="M490.82,60.18v172.88H182.62V60.18H490.82 M492,59H181.44v175.23H492V59L492,59z"/>
	</g>
	<g>
		<path class="st1" d="M490.75,246.25v140.38H138.01V246.25H490.75 M492,245H136.76v142.88H492V245L492,245z"/>
	</g>
	<g>
		<path class="st1" d="M124.64,246.23v244.55H7.23V246.23H124.64 M125.87,245H6v247h119.87V245L125.87,245z"/>
	</g>
	<g>
		<path class="st1" d="M294.69,397.31v93.38H138.07v-93.38H294.69 M296,396H136.76v96H296V396L296,396z"/>
	</g>
	<g>
		<path class="st1" d="M490.74,397.26v93.48H305.83v-93.48H490.74 M492,396H304.57v96H492V396L492,396z"/>
	</g>
	<g>
		<path class="st2" d="M183.46,20.7c0,2.08-0.71,3.7-2.13,4.87c-1.42,1.17-3.02,1.75-4.81,1.75c-0.61,0-1.22-0.07-1.83-0.21
			c-0.09-0.27-0.27-0.64-0.53-1.09l0.32-0.33c0.42,0.14,0.81,0.21,1.17,0.21c1.02,0,1.84-0.36,2.45-1.08
			c0.62-0.72,0.92-1.73,0.92-3.03c0-2.82-1.27-4.22-3.8-4.22c-0.3,0-0.91,0.06-1.82,0.18c-0.09,0.24-0.14,1.89-0.14,4.95v8.01
			c0,2.4,0.07,3.97,0.2,4.69c0.05,0.29,0.22,0.48,0.51,0.56c0.09,0.02,0.78,0.07,2.07,0.15l0.17,0.17v1l-0.15,0.15
			c-1.38-0.06-3.04-0.09-4.96-0.09c-2.17,0-3.72,0.03-4.66,0.09l-0.15-0.14v-1.01l0.17-0.17c1.02-0.06,1.6-0.11,1.76-0.15
			c0.29-0.08,0.46-0.27,0.51-0.56c0.13-0.73,0.2-2.29,0.2-4.69v-8.01c0-2.4-0.07-3.97-0.2-4.69c-0.05-0.29-0.22-0.48-0.51-0.56
			c-0.15-0.04-0.74-0.09-1.77-0.15l-0.15-0.17v-1l0.17-0.15c0.99,0.06,2.51,0.09,4.56,0.09c0.85,0,2.07-0.02,3.66-0.05
			c1.59-0.03,2.51-0.05,2.75-0.05c2.76,0,4.56,0.7,5.39,2.1C183.25,18.79,183.46,19.67,183.46,20.7z"/>
		<path class="st2" d="M196.28,22.69l-0.11,2.69c-0.01,0.44-0.03,0.95-0.06,1.51l-0.64,0.2c-0.47-0.69-1.13-1.03-1.97-1.03
			c-0.76,0-1.38,0.3-1.88,0.91c-0.3,0.37-0.45,0.92-0.45,1.65v3.54c0,0.74,0.04,1.76,0.11,3.07c0.02,0.37,0.13,0.62,0.32,0.73
			c0.19,0.11,0.89,0.19,2.1,0.23l0.15,0.14v0.92l-0.15,0.15c-1.48-0.06-2.96-0.09-4.42-0.09c-1.81,0-3.18,0.04-4.13,0.11L185,37.27
			v-0.92l0.15-0.15c0.97-0.03,1.57-0.11,1.8-0.23c0.2-0.09,0.31-0.33,0.33-0.73c0.07-1.31,0.11-2.72,0.11-4.22v-2.16
			c0-2.02-0.08-3.18-0.23-3.48c-0.1-0.2-0.32-0.33-0.65-0.38c-0.12-0.02-0.56-0.05-1.32-0.08l-0.15-0.15v-0.85l0.15-0.17
			c1.82-0.17,3.73-0.59,5.74-1.26l0.33,0.2l-0.03,2.97c0.63-0.73,1.38-1.57,2.27-2.54c0.41-0.4,0.98-0.61,1.7-0.61
			C195.63,22.51,195.99,22.57,196.28,22.69z"/>
		<path class="st2" d="M210.72,28.82c0,0.17-0.01,0.43-0.02,0.77l-0.17,0.21c-1.33,0.36-3.1,0.54-5.3,0.54
			c-0.39,0-0.99,0.01-1.79,0.02c-0.8,0.02-1.4,0.02-1.8,0.02c0.06,1.48,0.52,2.71,1.38,3.68c0.9,1.04,2.07,1.56,3.51,1.56
			c0.97,0,2.12-0.33,3.45-1l0.36,0.44l-0.67,1.5c-1.47,0.94-3.07,1.41-4.8,1.41c-2.27,0-4.03-0.64-5.29-1.92
			c-1.26-1.28-1.88-3.11-1.88-5.48c0-2.82,0.67-4.74,2.01-5.78c1.86-1.43,3.62-2.15,5.28-2.15c1.81,0,3.2,0.52,4.19,1.56
			C210.22,25.28,210.72,26.82,210.72,28.82z M206.77,28.43c0-2.72-0.85-4.09-2.54-4.09c-1.79,0-2.68,1.35-2.68,4.06v0.33
			c0.58,0.09,1.62,0.14,3.12,0.14c0.78,0,1.47-0.05,2.09-0.14C206.76,28.59,206.77,28.49,206.77,28.43z"/>
		<path class="st2" d="M228.73,24.1l-0.15,0.17c-0.62,0.04-1.02,0.12-1.21,0.23c-0.14,0.08-0.31,0.3-0.51,0.67
			c-0.2,0.36-0.58,1.18-1.14,2.45l-2.89,6.71c-0.1,0.24-0.54,1.33-1.3,3.25h-2.65c-0.57-1.59-1.18-3.22-1.85-4.89
			c-1.06-2.65-1.96-4.93-2.71-6.84c-0.33-0.85-0.69-1.34-1.07-1.48c-0.22-0.08-0.52-0.13-0.89-0.14l-0.17-0.17v-0.88l0.17-0.15
			c0.93,0.03,2.28,0.05,4.04,0.05c1.55,0,2.77-0.02,3.65-0.05l0.17,0.15v0.89l-0.17,0.17c-0.75,0.02-1.23,0.07-1.45,0.14
			c-0.22,0.07-0.33,0.21-0.33,0.41c0,0.28,0.62,2.06,1.86,5.33c0.66,1.75,1.08,2.84,1.29,3.28c0.65-1.51,1.26-3,1.85-4.45
			c0.96-2.37,1.44-3.76,1.44-4.16c0-0.21-0.1-0.35-0.31-0.42c-0.21-0.07-0.7-0.11-1.49-0.14l-0.17-0.15v-0.89l0.17-0.15
			c0.78,0.03,1.7,0.05,2.75,0.05c1.14,0,2.12-0.02,2.94-0.05l0.15,0.15V24.1z"/>
		<path class="st2" d="M238.5,37.27l-0.15,0.15c-0.96-0.07-2.34-0.11-4.15-0.11c-1.81,0-3.18,0.04-4.13,0.11l-0.15-0.15v-0.92
			l0.15-0.15c0.97-0.03,1.57-0.11,1.8-0.23c0.2-0.09,0.31-0.33,0.33-0.73c0.07-1.31,0.11-2.72,0.11-4.22v-2.16
			c0-1.96-0.08-3.12-0.23-3.48c-0.08-0.2-0.3-0.33-0.65-0.38c-0.12-0.02-0.56-0.05-1.32-0.08l-0.15-0.15v-0.85l0.15-0.17
			c1.94-0.17,3.89-0.59,5.86-1.26l0.32,0.2c-0.13,1.84-0.2,3.39-0.2,4.65v4.83c0,0.74,0.04,1.76,0.11,3.07
			c0.02,0.39,0.13,0.64,0.33,0.73c0.23,0.12,0.83,0.2,1.8,0.23l0.17,0.15V37.27z M236.41,17.52c0,0.65-0.23,1.2-0.68,1.66
			c-0.45,0.46-1,0.69-1.63,0.69c-0.65,0-1.2-0.23-1.65-0.69c-0.45-0.46-0.68-1.01-0.68-1.66c0-0.67,0.23-1.23,0.69-1.68
			c0.46-0.45,1.01-0.68,1.64-0.68c0.63,0,1.17,0.23,1.63,0.68C236.18,16.29,236.41,16.85,236.41,17.52z"/>
		<path class="st2" d="M253.77,28.82c0,0.17-0.01,0.43-0.02,0.77l-0.17,0.21c-1.33,0.36-3.1,0.54-5.3,0.54
			c-0.39,0-0.99,0.01-1.79,0.02c-0.8,0.02-1.4,0.02-1.8,0.02c0.06,1.48,0.52,2.71,1.38,3.68c0.9,1.04,2.07,1.56,3.51,1.56
			c0.97,0,2.12-0.33,3.45-1l0.36,0.44l-0.67,1.5c-1.47,0.94-3.07,1.41-4.8,1.41c-2.27,0-4.03-0.64-5.29-1.92
			c-1.26-1.28-1.88-3.11-1.88-5.48c0-2.82,0.67-4.74,2.01-5.78c1.86-1.43,3.62-2.15,5.28-2.15c1.81,0,3.2,0.52,4.19,1.56
			C253.26,25.28,253.77,26.82,253.77,28.82z M249.82,28.43c0-2.72-0.85-4.09-2.54-4.09c-1.79,0-2.68,1.35-2.68,4.06v0.33
			c0.59,0.09,1.62,0.14,3.12,0.14c0.78,0,1.47-0.05,2.09-0.14C249.81,28.59,249.82,28.49,249.82,28.43z"/>
		<path class="st2" d="M280.27,24.09l-0.17,0.15c-0.6,0.02-0.97,0.06-1.13,0.13c-0.16,0.07-0.3,0.18-0.42,0.35
			c-0.12,0.17-0.33,0.67-0.64,1.52c-0.37,1.01-0.74,2.06-1.1,3.15l-1.76,5.27c-0.15,0.44-0.3,0.94-0.45,1.48l-0.41,1.44h-2.48
			l-1.65-4.06l-2.44-5.62c-1.39,2.92-2.63,5.72-3.72,8.4l-0.52,1.27h-2.45c-0.03-0.08-0.12-0.46-0.27-1.15
			c-0.09-0.39-0.22-0.88-0.38-1.47l-2.23-7.93c-0.33-1.17-0.56-1.91-0.7-2.21c-0.1-0.2-0.23-0.34-0.39-0.42
			c-0.16-0.08-0.65-0.13-1.47-0.16l-0.15-0.17v-0.89l0.17-0.15c0.79,0.03,2.09,0.05,3.91,0.05c1.86,0,3.24-0.02,4.15-0.05l0.17,0.15
			v0.91l-0.17,0.14c-0.79,0-1.31,0.04-1.57,0.11c-0.26,0.07-0.39,0.22-0.39,0.45c0,0.21,0.05,0.51,0.15,0.89l1.83,6.98l3.63-8.08
			c0.25-0.61,0.52-1.25,0.82-1.92h1.54l4.28,10.01l1.48-4.51c0.55-1.69,0.83-2.77,0.83-3.27c0-0.25-0.09-0.41-0.26-0.47
			c-0.17-0.06-0.74-0.12-1.7-0.17l-0.17-0.15v-0.89l0.18-0.17c0.76,0.03,1.81,0.05,3.15,0.05c0.99,0,1.9-0.02,2.72-0.05l0.17,0.15
			V24.09z"/>
		<path class="st2" d="M307.16,30.49c0,2.53-1.23,4.5-3.68,5.89c-1.21,0.69-2.77,1.03-4.68,1.03c-0.61,0-1.11-0.01-1.5-0.02
			l-3.62-0.08c-1.29,0-2.29,0.03-3,0.09l-0.15-0.15v-0.42l0.08-0.18c0.75-0.47,1.15-0.77,1.21-0.89c0.09-0.18,0.15-0.85,0.17-2.01
			l0.05-3.39v-7.67c0-2.4-0.07-3.97-0.2-4.69c-0.05-0.29-0.22-0.48-0.52-0.56c-0.15-0.04-0.74-0.09-1.77-0.15l-0.15-0.15v-1.03
			l0.15-0.14c0.9,0.06,2.44,0.09,4.63,0.09c1.39,0,2.65-0.02,3.77-0.08c0.89-0.04,1.64-0.06,2.25-0.06c2.82,0,4.66,0.64,5.54,1.92
			c0.46,0.68,0.7,1.45,0.7,2.33c0,1.43-0.56,2.63-1.68,3.59c-0.53,0.45-1.09,0.79-1.66,1.01c-0.67,0.25-1.39,0.47-2.18,0.65
			C305.08,25.6,307.16,27.29,307.16,30.49z M301.87,20.91c0-2.23-1.16-3.35-3.48-3.35c-0.77,0-1.42,0.04-1.95,0.12
			c-0.04,1.06-0.06,2.04-0.06,2.94v4.18c0.23,0.02,0.7,0.03,1.39,0.03c1.83,0,3.03-0.58,3.6-1.76
			C301.71,22.4,301.87,21.67,301.87,20.91z M302.52,30.96c0-3.03-1.59-4.54-4.77-4.54c-0.4,0-0.86,0.02-1.38,0.05v7.01
			c0,0.76,0.02,1.5,0.06,2.23c0.41,0.07,0.99,0.11,1.74,0.11c1.41,0,2.5-0.44,3.27-1.33C302.17,33.62,302.52,32.45,302.52,30.96z"/>
		<path class="st2" d="M333.25,25.42c0,3.42-1.12,6.26-3.35,8.51c-1.09,1.1-2.41,1.95-3.96,2.56c-1.67,0.66-3.61,0.96-5.83,0.92
			l-5.34-0.09c-1.45-0.02-2.65,0.01-3.6,0.09l-0.15-0.15v-0.42l0.08-0.18c0.75-0.47,1.15-0.77,1.21-0.89
			c0.09-0.18,0.15-0.85,0.17-2.01l0.05-3.39v-7.67c0-2.4-0.07-3.97-0.2-4.69c-0.05-0.29-0.22-0.48-0.52-0.56
			c-0.15-0.04-0.74-0.09-1.77-0.15l-0.15-0.15v-1.03l0.15-0.14c1.07,0.06,2.09,0.09,3.06,0.09c2.35,0,4.47-0.03,6.36-0.09
			c0.94-0.03,1.88-0.05,2.83-0.05c2.62,0,4.64,0.3,6.04,0.89c1.53,0.66,2.73,1.69,3.6,3.09C332.81,21.34,333.25,23.18,333.25,25.42z
			 M328.61,26.14c0-2.79-0.68-4.94-2.03-6.45c-0.71-0.79-1.59-1.34-2.65-1.67c-1.01-0.3-2.42-0.45-4.22-0.45
			c-0.94,0-1.84,0.07-2.7,0.2c-0.1,1.13-0.15,3.87-0.15,8.2l0.03,6.61c0.01,1.47,0.05,2.45,0.12,2.94c0.89,0.14,1.8,0.21,2.72,0.21
			c2.01,0,3.59-0.29,4.75-0.88c1.25-0.64,2.25-1.72,2.98-3.24C328.23,30.05,328.61,28.22,328.61,26.14z"/>
	</g>
</g>
</svg>
