<?xml version="1.0" encoding="UTF-8"?>
<svg xmlns="http://www.w3.org/2000/svg" xmlns:xlink="http://www.w3.org/1999/xlink" viewBox="0 0 1650 2000">
  <defs>
    <style>
      .cls-1 {
        fill: #f3d6a4;
      }

      .cls-1, .cls-2, .cls-3, .cls-4, .cls-5 {
        stroke-width: 0px;
      }

      .cls-6, .cls-7, .cls-8, .cls-9, .cls-10, .cls-11, .cls-12 {
        stroke-miterlimit: 10;
      }

      .cls-6, .cls-7, .cls-9, .cls-10, .cls-11, .cls-12 {
        stroke-width: 4px;
      }

      .cls-6, .cls-7, .cls-11 {
        fill: #fff;
      }

      .cls-6, .cls-9, .cls-10, .cls-11 {
        stroke-linecap: round;
      }

      .cls-6, .cls-10 {
        stroke: #fff;
      }

      .cls-7, .cls-8, .cls-9, .cls-11, .cls-12 {
        stroke: #1d1d1b;
      }

      .cls-2 {
        fill: url(#Dégradé_sans_nom_9);
        opacity: .5;
      }

      .cls-3 {
        fill: #f1b3b3;
      }

      .cls-8, .cls-9, .cls-12 {
        fill: #1d1d1b;
      }

      .cls-4 {
        fill: #f3caa4;
      }

      .cls-10 {
        fill: none;
      }

      .cls-5 {
        fill: #fdf9b2;
      }
    </style>
    <linearGradient id="Dégradé_sans_nom_9" data-name="Dégradé sans nom 9" x1="825" y1="2000" x2="825" y2="0" gradientUnits="userSpaceOnUse">
      <stop offset="0" stop-color="#fffaaa"/>
      <stop offset="1" stop-color="#ff7fc6" stop-opacity="0"/>
    </linearGradient>
  </defs>
  <g id="Calque_1" data-name="Calque 1">
    <image width="1650" height="2000" xlink:href="../../Dessins/chat.png"/>
  </g>
  <g id="Calque_12" data-name="Calque 12">
    <rect class="cls-3" width="1650" height="2000"/>
  </g>
  <g id="Calque_13" data-name="Calque 13">
    <path class="cls-4" d="m0,798.88s158,59.29,378.24-156.71,686.12-95.29,794.12,72,372.94,216,477.65,196.94v1088.88H0V798.88Z"/>
  </g>
  <g id="Calque_14" data-name="Calque 14">
    <path class="cls-1" d="m0,1017c14,2.12,210.94,27.53,382.47-116.47,171.53-144,578.12-182.12,728.47,14.82s464,249.88,539.06,220.24v864.41H0v-983Z"/>
  </g>
  <g id="Calque_15" data-name="Calque 15">
    <path class="cls-5" d="m0,1593c0-2.12,242.71,40.24,443.88-139.76s722.12-186.35,891.53,0,214.12,260.47,314.59,226.59v320.18H0v-407Z"/>
  </g>
  <g id="Calque_16" data-name="Calque 16">
    <rect class="cls-2" width="1650" height="2000"/>
  </g>
  <g id="Calque_10" data-name="Calque 10">
    <path class="cls-6" d="m546.29,769.91s3.47,96.35,146.41,139.76c0,0,56.12,14.96,39.18,47.19,0,0-39.65,66.58-5.53,110.28,0,0-126.82,285.12-56.94,456.65,0,0,22.24,72-14.82,92.12,0,0-28.59,39.18-21.18,72s14.82,86.82,96.35,57.18c0,0,39.87-15.88,49.05-51.88,0,0,38.83-6.35,40.95,14.82s-10.52,67.76,51.92,72,87.85-31.76,95.26-42.35,114.35,126,239.29-80.47c0,0,159.88-75.71,188.47-198s-33.76-449.95-27-491.82c11.12-68.82,82.59-106.42,144.53-210.71s-165.18-166.94-230.29-105.44-126.34,188.85-90.97,347.53,102.08,368.32,46.5,415.97c0,0-35.05-202.82-148.56-347.59,0,0-72.22-147.94-56.33-184.47s50.3-16.94,88.95-116.47c0,0,58.42,10.59,69.45-14.29s-82.15-33.88-82.15-33.88c0,0,9.15-4.23,1.32-11.18s80.84-14.94,80.84-14.94c0,0,20.55-17.82-3.27-36.88s-76.76,3.48-76.76,3.48c0,0-14.16-17.85-24.88-70.19-12.79-62.46,16.41,56.95-7.94-294.73,0,0-21.18-45.68-65.65-12.86s-126,170.53-126,170.53c0,0-79.41-18.8-120.71-6.78,0,0-24.35-105.51-79.41-158.46,0,0-37.36-21.18-61.03,19.06s-27.91,247.76-27.91,247.76c0,0-42.86,69.88-43.41,91.06,0,0-47.46-10.12-73.79-3.77s6.02,58.99,67.43,61.02l-1.06,10.51s-53.04-2.65-71.52,24.09c0,0-25.42,44.74,71.23,34.15Z"/>
  </g>
  <g id="Calque_2" data-name="Calque 2">
    <g>
      <path class="cls-8" d="m626.98,566.32c-16.89,21.81-122.58,168.76-3.91,288.93.31.31.6.65.87,1,2.88,3.89,25.38,31.66,93.2,50.1.67.18,1.33.44,1.95.76,7.02,3.65,49.22,27.43,43.67,68.96-.11.81-.13,1.64-.04,2.45h0c.33,3.07-.78,6.12-3,8.27-11.65,11.28-45.64,50.17-3.17,85.24,3.72,3.07,4.71,8.37,2.34,12.58-23.53,41.85-131.43,252.3-58.25,473.99,0,0,16.94,47.91-27.53,91.32,0,0-35.47,35.47-23.82,74.65s77.29,20.12,89.47,0c5.01-8.28,11.01-19.97,16.34-30.86,6.83-13.96,24.2-19.05,37.42-10.88,11.02,6.81,25.99,14.13,45.12,19.41,5.66,1.56,8.75,7.69,6.66,13.18-8.33,21.89-19.31,70.07,49.07,63.26.59-.06,1.19-.06,1.77-.02,4.19.28,26.12-1.07,61.24-52.63,4.46-6.55,13.83-7.5,19.37-1.82,17.73,18.19,70.6,42.45,142.95-5.1,1.72-1.13,72.71-62.56,83.29-99.18.98-3.39,66-14.47,85.76-40.59s93.18-60.71,99.53-266.12-124.94-340.94,45.53-472.24c163.17-125.67-91.76-231.94-149.18-160.03-6.17,7.72-12.43,15.36-19.17,22.59-28.44,30.55-92.04,123.92-56.12,322.74,43.49,240.71,124.66,335.55,29.41,433.07-5.78,5.92-15.86,2.6-17.02-5.59-8.42-59.36-41.35-242.52-140.1-368.74-.27-.35-.51-.7-.74-1.08-4.85-8.31-60.36-104.74-60.03-164.58,0-.72-.06-1.43-.21-2.13l-2.79-13.03c-5.3-24.75,4.73-50.19,25.37-64.84,23.09-16.39,50.15-43.46,56.27-82.8,8.27-53.18-15.99-110.33-28.95-136.09-4.89-9.72-7.14-20.55-6.52-31.42,2.78-49.38,9.37-191.51-1.99-266.24-3.28-21.55-29.26-31.14-45.39-16.47-2.79,2.54-5.63,5.66-8.47,9.49-21.69,29.15-75.78,105.16-98.07,155.93-5.44,12.39-19.35,18.64-32.22,14.48-24.87-8.04-65.22-17.19-101.72-7.98-12.4,3.13-24.99-4.32-28.38-16.65-9.38-34.17-29.44-96.76-61.23-144.98,0,0-16.68-27.79-39.71,6.35-21.23,31.47-17.49,209.33-16.78,237,.06,2.31-.68,4.55-2.09,6.38Z"/>
      <path class="cls-12" d="m1092.58,686.58c.05.09,54.22-34.58,89.92-17.82,35.7,16.76-50.25,7.89-93.58,30.24l3.67-12.42Z"/>
      <path class="cls-12" d="m1081.03,735.09c2.38-.79,54.79-7.94,90.53,17.47s-73.06-7.15-90.53-3.18,0-14.29,0-14.29Z"/>
      <path class="cls-12" d="m584.39,693.94c-.06.08-46.01-44.93-84.38-35.81-38.37,9.11,47.58,17.99,85.43,48.72l-1.05-12.91Z"/>
      <path class="cls-12" d="m585.79,743.78c-2.17-1.26-52.02-18.97-92.19-1.39s72.98,7.93,89.27,15.39,2.92-13.99,2.92-13.99Z"/>
    </g>
  </g>
  <g id="Calque_3" data-name="Calque 3">
    <path class="cls-7" d="m768.41,973.06l-7.6-41.61c-1.61-8.8,6.06-16.5,14.86-14.91,35.47,6.43,118.51,12.22,215.8-44.24,5.93-3.44,13.44.36,14.17,7.17l10.39,64.03c.8,7.46-2.7,14.72-9.03,18.75-28.51,18.17-116.33,54.87-198.36,37.74h-36.53l-3.71-26.94Z"/>
  </g>
  <g id="Calque_4" data-name="Calque 4">
    <path class="cls-7" d="m835.65,1025.18c0,26.31-21.33,47.65-47.65,47.65s-47.65-21.33-47.65-47.65,21.87-42.37,47.65-47.65c34.94-7.15,47.65,21.33,47.65,47.65Z"/>
  </g>
  <g id="Calque_5" data-name="Calque 5">
    <path class="cls-7" d="m970.48,695.76c-6.34,43.67-34.21,79.82-76.41,79.82s-76.14-35.74-76.41-79.82c-.3-49.04,41.03-94.7,89-86.61,53.38,9,70.82,38.47,63.83,86.61Z"/>
    <path class="cls-7" d="m725.3,676.29c-4.52,43.67-24.36,79.82-54.42,79.82s-54.22-35.74-54.42-79.82c-.21-49.04,29.22-94.7,63.38-86.61,38.01,9,50.43,38.47,45.46,86.61Z"/>
    <path class="cls-12" d="m710.13,675.43c-3.52,34.03-15.3,66.01-38.72,66.01s-45.94-31.66-46.09-66.01c-.17-38.21,26.47-73.52,53.09-67.21,29.62,7.02,35.59,29.7,31.71,67.21Z"/>
    <g id="Calque_6" data-name="Calque 6">
      <path class="cls-12" d="m961.28,691.9c-11.69,54.05-35.24,74.6-66.48,66.48-35.54-9.24-66.48-29.76-66.48-66.48s29.76-66.48,66.48-66.48,74.24,30.59,66.48,66.48Z"/>
    </g>
  </g>
  <g id="Calque_7" data-name="Calque 7">
    <ellipse class="cls-12" cx="777.87" cy="1008.57" rx="24.42" ry="16.04" transform="translate(-441.31 639.92) rotate(-35.53)"/>
    <line class="cls-9" x1="984.45" y1="896.99" x2="997.16" y2="950.46"/>
    <line class="cls-9" x1="950.1" y1="909.67" x2="962.28" y2="965.78"/>
    <line class="cls-9" x1="917.34" y1="921.92" x2="927.93" y2="979.01"/>
    <line class="cls-9" x1="882.24" y1="930.18" x2="888.59" y2="987.35"/>
    <line class="cls-9" x1="838.82" y1="937.73" x2="845.71" y2="987.35"/>
    <line class="cls-9" x1="793.82" y1="937.73" x2="797.53" y2="973.06"/>
  </g>
  <g id="Calque_8" data-name="Calque 8">
    <path class="cls-11" d="m1006.16,539.05l19.23-178.54c.89-8.26-9.34-12.34-13.98-5.58-24.51,35.72-67.98,101.78-81.64,140.09-3.89,10.9,2.24,22.93,13.1,25.64,12.81,3.21,30.67,10.13,45.47,25,6.31,6.35,16.85,2.47,17.83-6.61Z"/>
    <path class="cls-11" d="m655.61,541.1c-22.03,29.34.81-122.53,5.01-166.15.79-8.26,10.62-7.7,13.43.75l38.02,114.52c4.22,12.72-.99,25.29-11.49,27.87-15.43,3.79-35.86,10.87-44.97,23.01Z"/>
  </g>
  <g id="Calque_9" data-name="Calque 9">
    <path class="cls-10" d="m763.65,1687.76c3.02-1.11,45.79-81.53,24.35-153"/>
    <path class="cls-10" d="m962.18,1726.41s46.98-112.24,23.16-191.65"/>
    <path class="cls-10" d="m840.94,1713.71s80.85-120.72,57.12-184.24"/>
  </g>
  <g id="Calque_17" data-name="Calque 17">
    <path class="cls-6" d="m374.6,430.98l-23.43-58.8c-9.32-23.39-23.69-42.78-41.39-55.85l-44.5-32.86,47.43-31.87c17.28-11.61,31.67-29.32,41.46-51.04l26.88-59.6,24.57,61.66c8.58,21.53,21.8,39.36,38.09,51.39l46.66,34.46-48.36,32.49c-16.67,11.2-30.56,28.29-40.01,49.25l-27.4,60.76Z"/>
    <path class="cls-6" d="m233.53,626.97l-16.34-41c-6.5-16.31-16.52-29.83-28.86-38.94l-31.03-22.91,33.07-22.22c12.05-8.1,22.08-20.45,28.91-35.58l18.74-41.56,17.13,42.99c5.98,15.01,15.2,27.45,26.56,35.83l32.54,24.03-33.72,22.65c-11.63,7.81-21.31,19.73-27.9,34.34l-19.11,42.37Z"/>
    <path class="cls-6" d="m1442.11,1759.03l-16.34-41c-6.5-16.31-16.52-29.83-28.86-38.94l-31.03-22.91,33.07-22.22c12.05-8.1,22.08-20.45,28.91-35.58l18.74-41.56,17.13,42.99c5.98,15.01,15.2,27.45,26.56,35.83l32.54,24.03-33.72,22.65c-11.63,7.81-21.31,19.73-27.9,34.34l-19.11,42.37Z"/>
  </g>
</svg>