<?xml version="1.0" encoding="utf-8"?>
<!-- Generator: Adobe Illustrator 28.1.0, SVG Export Plug-In . SVG Version: 6.00 Build 0)  -->
<svg version="1.1" id="Calque_1" xmlns="http://www.w3.org/2000/svg" xmlns:xlink="http://www.w3.org/1999/xlink" x="0px" y="0px"
	 viewBox="0 0 1920 1080" style="enable-background:new 0 0 1920 1080;" xml:space="preserve">
<style type="text/css">
	.st0{fill:#FFFFFF;}
</style>
<g id="Calque_2_00000088830478760651277510000017206334517269930112_">
</g>
<g id="Calque_1_00000046314896387370859420000011880137895123644069_">
	<g id="Calque_2_00000154387873932456333300000004112509016564568750_">
		<path class="st0" d="M1015.4,900.7c90-14.9,207,63.1,361,25.1c278.8-68.9,175.6-320.7,68.5-490.7
			c-107.1-170-242.8,28.1-389.6-191.2c-91.9-137-208-106.7-282.2-64.6c-51.8,29.4-107.1,49.7-164.3,59.6
			c-353.9,61.1-347,446.1-164.8,576.2c16.2,11.6,31.4,24.2,46,37.7C523.9,884.2,634.5,963.8,1015.4,900.7z"/>
	</g>
	<g id="Calque_2_00000060722642444089394880000005262857463359189142_">
		<path class="st0" d="M1015.4,900.7c90-14.9,207,63.1,361,25.1c278.8-68.9,175.6-320.7,68.5-490.7
			c-107.1-170-242.8,28.1-389.6-191.2c-91.9-137-208-106.7-282.2-64.6c-51.8,29.4-107.1,49.7-164.3,59.6
			c-353.9,61.1-347,446.1-164.8,576.2c16.2,11.6,31.4,24.2,46,37.7C523.9,884.2,634.5,963.8,1015.4,900.7z"/>
	</g>
</g>
</svg>
