<?xml version="1.0" encoding="utf-8"?>
<!-- Generator: Adobe Illustrator 28.1.0, SVG Export Plug-In . SVG Version: 6.00 Build 0)  -->
<svg version="1.1" xmlns="http://www.w3.org/2000/svg" xmlns:xlink="http://www.w3.org/1999/xlink" x="0px" y="0px"
	 viewBox="0 0 1717 1200" style="enable-background:new 0 0 1717 1200;" xml:space="preserve">
<style type="text/css">
	.st0{fill:#D3F0EE;}
	.st1{clip-path:url(#SVGID_00000065785070375013677250000008432949401580667777_);fill:#FFFFFF;}
	.st2{clip-path:url(#SVGID_00000065785070375013677250000008432949401580667777_);fill:#47849A;}
	.st3{clip-path:url(#SVGID_00000065785070375013677250000008432949401580667777_);fill:#F4AEA6;}
</style>
<g id="Calque_3">
	<rect y="-1.09" class="st0" width="1717" height="1197.82"/>
</g>
<g id="Calque_2">
	<g>
		<defs>
			<rect id="SVGID_1_" y="-1.09" width="1717" height="1197.82"/>
		</defs>
		<clipPath id="SVGID_00000069397028487134931950000012197718810472339903_">
			<use xlink:href="#SVGID_1_"  style="overflow:visible;"/>
		</clipPath>
		<path style="clip-path:url(#SVGID_00000069397028487134931950000012197718810472339903_);fill:#FFFFFF;" d="M803.09,1103.49
			c51.9,21.35,97.06-33.29,85.26-113.74c-7.64-52.07,239.12-239.11,188.58-347.65c-62.52-134.26-120.93-27.36-187.73-30.86
			c-35.7-1.87-29.2,15.51-96.1-57.82c-60.62-66.44-219.44-35.39-275.82,81.06c-35.02,72.34,28.28,115.36,108.69,153.21
			C798.83,869.09,634.02,1033.96,803.09,1103.49z"/>
		<path style="clip-path:url(#SVGID_00000069397028487134931950000012197718810472339903_);fill:#47849A;" d="M1330.12,1172.31
			c15.39,10.77,64.57,83.16-19.99,123.52c-23.79,11.36-206.74-1.05-238.78,20.02c-111.92,73.59-94.59,14.12-100.94-16.84
			c0,0-172.57-102.62,37.67-290.18c61.02-54.44,58.78-140.64,110.31-189.48c29.59-28.06,62.21-28.44,92.86-11.05
			c44.73,25.37,39.2,85.56,8.57,129.52C1184.06,989.14,1213.28,1090.56,1330.12,1172.31z"/>
		<path style="clip-path:url(#SVGID_00000069397028487134931950000012197718810472339903_);fill:#F4AEA6;" d="M379.46,903.98
			c72.28-26.08,183.75-84.38,234.06-13.45c39.97,56.35,5.28,80.93,17.23,173.98c12.36,96.22,115.37,100.44,99.22,145.85
			c-30.62,86.12-301.63,39.12-361.67-28.88c-17.23-19.52-250.7-73.33-234.3-153.94C148.83,954.68,338.64,918.7,379.46,903.98z"/>
		<path style="clip-path:url(#SVGID_00000069397028487134931950000012197718810472339903_);fill:#47849A;" d="M911.94,292.93
			c34.83,55.47-68.51,101.19-80.97,141.44c-20.97,67.77,31.75,121.71,129.12,66.36c46.34-26.34,172.67,95.48,239.83,111.72
			c53.46,12.92,207.7-22.51,182.43-97.37c-27.67-81.99-154.4-23.21-236.75-105.57c-36.9-36.9-17.79-81.11,12.3-108.64
			c18.06-16.53,108.66-115.3,72.77-144.51c-35.69-29.04-225.86,54.32-219.33-28.7s-31.52-60.34-67.64-43.05
			c-19.56,9.36-100.47,63.6-101.08,131.06C842.09,272.81,902.42,277.77,911.94,292.93z"/>
		<path style="clip-path:url(#SVGID_00000069397028487134931950000012197718810472339903_);fill:#FFFFFF;" d="M1567.86-31.2
			c32.28,8.07,285.14-6.65,259.01,65.23c0,0-28.7,86.09,6.15,104.43c87.11,45.84,10.73,118.67,64.57,172.35
			c31.22,31.13-10.14,46.32-33.59,50.93c-23.44,4.61-49.14,8.93-76.79,7.43c-42.66-2.31-116.19,252.35-232.31,230.83
			c-67.6-12.53-12.6-233.26-205.29-192.26c-14.65,3.12-71.53,5.67-85.23-24.55c-28.21-62.2,94.08-147.15,137.34-228.56
			c25.88-48.71-29.7-99.67-14.82-133.94C1442.62-107.67,1535.58-39.27,1567.86-31.2z"/>
		<path style="clip-path:url(#SVGID_00000069397028487134931950000012197718810472339903_);fill:#47849A;" d="M31.6,1052.02
			c5.08,42.47,50.35,78.88,69.95,95.17c14.44,12,64.57,83.16-19.99,123.52c-23.79,11.36-73.79-2.69-105.83,18.37
			c-111.92,73.59-142.3-478.15-90.77-527c12.22-11.59,65.36-202.1,134.26-224.46c97.93-31.78,172.81,82.48,232.65,104.48
			c111.72,41.06,256.23,32.25,148.61,164.46C366.53,848.28,19.22,948.62,31.6,1052.02z"/>
		<path style="clip-path:url(#SVGID_00000069397028487134931950000012197718810472339903_);fill:#F4AEA6;" d="M246.87,324.9
			c10.21,29.55,129.75,35.01,211.02,32.34c122.86-4.05,238.96,132.72,319.98,44.56c100.21-109.05-20.9-122.22-43.16-185.29
			c-11.9-33.71-25.49-21.06,16.74-110.9c38.26-81.39-51.09-216.33-180.24-223.96c-80.23-4.74-95.82,70.19-100.1,158.96
			C461.88,231.46,199.93,189.06,246.87,324.9z"/>
		<path style="clip-path:url(#SVGID_00000069397028487134931950000012197718810472339903_);fill:#47849A;" d="M246.53-201.89
			c25.58,34.28,84.87,39.44,110.15,42.63c18.63,2.35,99.16,35.4,49.56,114.89C392.29-22,290.82,69.07,232.73,68.11
			c-73.14-1.2-200.68,6.27-124.27-264.91C130.64-275.51,221.41-235.56,246.53-201.89z"/>
		<path style="clip-path:url(#SVGID_00000069397028487134931950000012197718810472339903_);fill:#FFFFFF;" d="M-30.06,245.65
			c35.92,54.77-41.8,119.33-53.45,159.82c-19.62,68.17,34.16,121.05,130.41,63.79c45.81-27.25,174.53,92.04,242,106.93
			c53.71,11.86,207.21-26.63,180.47-100.97c-29.29-81.43-154.83-20.14-238.8-100.85c-37.62-36.16-44.09-97.55-14.56-125.67
			c17.73-16.88,106.35-117.44,69.89-145.93C249.64,74.46,61.15,161.58,66.03,78.45s-32.71-59.7-68.48-41.7
			c-19.37,9.75-99.19,65.58-98.46,133.04C-100.3,226.92-39.88,230.69-30.06,245.65z"/>
		<path style="clip-path:url(#SVGID_00000069397028487134931950000012197718810472339903_);fill:#F4AEA6;" d="M1310.13-80.99
			c-67.84,45.65-19.74,135.48-77.41,176.88c-33.13,23.78-129.83,33.44-157.84,12.05c-40.87-31.21-20.48-107.93,15.83-147.32
			C1133.1-85.37,1310.13-80.99,1310.13-80.99z"/>
		<path style="clip-path:url(#SVGID_00000069397028487134931950000012197718810472339903_);fill:#F4AEA6;" d="M1753.37,1174.1
			c9.96-64.74,93.64-400.25,96.15-469.3c2-54.97-38.66-205.84-106.96-166.15c-74.82,43.48-81.88,140.99-150.1,175.26
			c-46.63,23.42-55.92-77.91-144.07-31.33c-87.21,46.09-165.15-8.2-186.61,32.8c-21.34,40.76,181.47,168.09,112.82,215.23
			c-64.01,43.96-74.24,87.7-8.64,169.69C1427.45,1177.17,1730.41,1323.35,1753.37,1174.1z"/>
	</g>
</g>
</svg>
