<?xml version="1.0" encoding="utf-8"?>
<!-- Generator: Adobe Illustrator 28.1.0, SVG Export Plug-In . SVG Version: 6.00 Build 0)  -->
<svg version="1.1" xmlns="http://www.w3.org/2000/svg" xmlns:xlink="http://www.w3.org/1999/xlink" x="0px" y="0px"
	 viewBox="0 0 1717 2507.5" style="enable-background:new 0 0 1717 2507.5;" xml:space="preserve">
<style type="text/css">
	.st0{fill:#D3F0EE;}
	.st1{clip-path:url(#SVGID_00000109729408908073735480000002162047781022549681_);fill:#47849A;}
	.st2{clip-path:url(#SVGID_00000109729408908073735480000002162047781022549681_);fill:#478499;}
	.st3{clip-path:url(#SVGID_00000109729408908073735480000002162047781022549681_);fill:#FFFFFF;}
	.st4{clip-path:url(#SVGID_00000109729408908073735480000002162047781022549681_);fill:#F4AEA6;}
</style>
<g id="Calque_1">
	<rect y="-1.1" class="st0" width="1717" height="2508.6"/>
</g>
<g id="Calque_2">
	<g>
		<defs>
			<rect id="SVGID_1_" y="-0.6" width="1717" height="2508.6"/>
		</defs>
		<clipPath id="SVGID_00000031176062119086503130000006142479271211883399_">
			<use xlink:href="#SVGID_1_"  style="overflow:visible;"/>
		</clipPath>
		<path style="clip-path:url(#SVGID_00000031176062119086503130000006142479271211883399_);fill:#47849A;" d="M1672.1,731.7
			c-38.1,2.3-73,103.8-89.2,152.2c-16.1,48.4-144.1,113.4-207.5,176.8s-40.4,148.5-33.1,162.5c26,49.8,175.5,151.4,360.5,0
			C1798.1,1145.2,1672.1,731.7,1672.1,731.7z"/>
		<path style="clip-path:url(#SVGID_00000031176062119086503130000006142479271211883399_);fill:#47849A;" d="M1482.1-13.8
			c-27.3,31.1-17.7,47.3,14.6,55.3s75.3,36.5,49.2,108.4c0,0,7.9,144.6,35.4,157.6c29.2,13.8,43.1-21.5,56.1-38.4
			s27.9-52.9,81.8,0.8c31.2,31.1,41.6,72.3,18.2,76.9s-15.4-14.6-43.1-16.1c-42.7-2.3-86.1,36.5-145.3,1.5s-18.8-88.8-50-130.7
			c-31.1-41.9-121.1-79.2-65.3-207.5C1489.5-134.5,1482.1-13.8,1482.1-13.8z"/>
		<path style="clip-path:url(#SVGID_00000031176062119086503130000006142479271211883399_);fill:#478499;" d="M600.6,781.5
			C446.1,866,352.3,509.4,214.3,629.3C172,666.1,200.5,731,277.7,756.5c50,16.5,96,195.3,212.1,224.6
			c148.4,37.5,161-29.9,126.9-87.4c-6.8-11.5-0.8-33,94.8-60c86.6-24.4,130.1-180.3,51.3-282.9C713.8,487,727.1,429.9,742,417
			c36.1-31.1,28-146-41.9-91.1C549.8,444,752.8,698.2,600.6,781.5z"/>
		<path style="clip-path:url(#SVGID_00000031176062119086503130000006142479271211883399_);fill:#FFFFFF;" d="M519.1,142.7
			c-8.1,15.4,32.3-15.7,76.9-43c122.2-74.9,179.5,83.7,8.5,122.2c-102.2,23.1-118.8,42.3-95.3,168.3S375,524.8,363.1,515.5
			c-11.9-9.2-104.3-50.1,0-196.8c24.6-34.6-40.5-142.7,111.5-209.1C571.4,67.4,519.1,142.7,519.1,142.7z"/>
		<path style="clip-path:url(#SVGID_00000031176062119086503130000006142479271211883399_);fill:#F4AEA6;" d="M0,333.6
			c206.2-31,198.6-307.4,521-322c44.1-2,86.5-29.9,44.6-34.6c-59.4-6.5-230.8,2-281.1,23C177.4,44.7,172.4,202.7-9.8,247.6
			C-31.1,252.9-21.8,336.9,0,333.6z"/>
		<path style="clip-path:url(#SVGID_00000031176062119086503130000006142479271211883399_);fill:#F4AEA6;" d="M1002.6,896.8
			c3.1,42.7,50.3,78.9,69.9,95.2c14.4,12,64.6,83.2-20,123.5c-23.8,11.4-73.8-2.7-105.8,18.4c-111.9,73.6-94.6,14.1-100.9-16.8
			c0,0-172.6-102.6,37.7-290.2c61-54.4,58.8-140.6,110.3-189.5c29.6-28.1,62.2-28.4,92.9-11c44.7,25.4,39.2,85.6,8.6,129.5
			C1059.4,807.2,999.5,854.9,1002.6,896.8z"/>
		<path style="clip-path:url(#SVGID_00000031176062119086503130000006142479271211883399_);fill:#FFFFFF;" d="M1299.3,668.5
			c-47.3,66.1-16.8,137.1-25.4,204.8c-9.6,75.7,14,114.3,40,123.4c53,18.5,134.4-6.9,78.4-186c-19.2-61.5,60-101.8,80.7-40
			c10.1,30.2,86.1,66.9,110.7-6.9s2.3-130.3-91.1-104.9c-76.3,20.7-45.1-35.2-58-53.4C1415.8,579,1329.2,626.7,1299.3,668.5z"/>
		<path style="clip-path:url(#SVGID_00000031176062119086503130000006142479271211883399_);fill:#F4AEA6;" d="M1563,1673.8
			c119,112.7-346.6,305.1-365,220.1c-28-56.3,112.2-196.4,43.7-260.5c-108.7-101.6-251.2-20.5-254.6-157.3
			c-21.9-60.3,129-130.4,244-88C1463.4,1473.9,1354.3,1476.1,1563,1673.8z"/>
		<path style="clip-path:url(#SVGID_00000031176062119086503130000006142479271211883399_);fill:#FFFFFF;" d="M971.1,344.1
			c34.8,55.5,26.9,144.1,51.5,178.3s70,60.3,111.5,26.9s73.5-123.9-81.5-193.7c-72.7-32.7,96.8-44.2,141.4,36.9
			c32.9,59.9,12.7,99.5-13.1,146.8c-25.8,47.3,51,71.6,95.3,6.2c64.6-95.3-7.6-185.1-89.9-267.5c-36.9-36.9,15.3-66.2,45.3-93.8
			c18.1-16.5,55-65.7,15.4-89.2s-71.9,22.3-99.9,40.7s-100.3,60-93.8-23.1s-31.5-60.3-67.6-43.1c-19.6,9.4-100.5,63.6-101.1,131.1
			C884.1,257.9,961.6,329,971.1,344.1z"/>
		<path style="clip-path:url(#SVGID_00000031176062119086503130000006142479271211883399_);fill:#FFFFFF;" d="M847.2,1423.8
			c-35.6,172.5,172.6,144.3,139.2,246.5c-16.4,50-214.8-34.7-276.8-137.2c-79.2-131-18.5-162.7,46.5-146.9
			c13,3.1,10.9,46.1,8.8-53.2c-2-89.9,134.4-177.1,255.5-131.8c75.3,28.2,126.1-1.2,134-19.2c19.2-43.6,131.4-69.5,99.4,13.4
			C1184.8,1373.7,882.4,1253.9,847.2,1423.8z"/>
		<path style="clip-path:url(#SVGID_00000031176062119086503130000006142479271211883399_);fill:#FFFFFF;" d="M1825,1427.3
			c-66.6-46.6-137.3-15.3-205.1-23.1c-75.8-8.8-114.1,15.3-122.9,41.4c-17.9,53.2,8.4,134.3,186.9,76.3c61.3-19.9-25,167.1,49,190.9
			c74.1,23.8,130.3,0.8,103.9-92.3c-21.6-76.1,34.7-45.5,52.7-58.6C1915.8,1542.8,1867.2,1456.7,1825,1427.3z"/>
		<path style="clip-path:url(#SVGID_00000031176062119086503130000006142479271211883399_);fill:#FFFFFF;" d="M-16,1890.2
			c34.8-55.5,26.9-144.1,51.5-178.3c24.6-34.2,70-60.3,111.5-26.9c41.5,33.4,73.5,123.9-81.5,193.7c-72.7,32.7,96.8,44.2,141.4-36.9
			c32.9-59.9,12.7-99.5-13.1-146.8c-25.8-47.3,51-71.6,95.3-6.2c64.6,95.3-7.6,185.1-89.9,267.5c-36.9,36.9,15.3,66.2,45.3,93.8
			c18.1,16.5,55,65.7,15.4,89.2S188,2117,160,2098.6c-28-18.4-100.3-60-93.8,23.1c6.5,83.1-31.5,60.3-67.6,43.1
			c-19.6-9.4-100.5-63.6-101.1-131.1C-103,1976.4-25.5,1905.3-16,1890.2z"/>
		<path style="clip-path:url(#SVGID_00000031176062119086503130000006142479271211883399_);fill:#478499;" d="M377.7,1365.8
			c8.1,15.4-32.3-15.7-76.9-43c-122.2-74.9-179.5,83.7-8.5,122.2c102.2,23.1,118.8,42.3,95.3,168.3s134.2,134.6,146.1,125.3
			c11.9-9.2,104.3-50.1,0-196.8c-24.6-34.6,40.5-142.7-111.5-209.1C325.4,1290.5,377.7,1365.8,377.7,1365.8z"/>
		<path style="clip-path:url(#SVGID_00000031176062119086503130000006142479271211883399_);fill:#FFFFFF;" d="M-10.6,873.1
			c60.8-35.6,183.8-84.4,234.1-13.5c40,56.3,5.3,80.9,17.2,174c12.4,96.2,115.4,100.4,99.2,145.8c-30.6,86.1-361.7-28.9-361.7-28.9
			L-10.6,873.1z"/>
		<path style="clip-path:url(#SVGID_00000031176062119086503130000006142479271211883399_);fill:#47849A;" d="M1163,2034.9
			c38.1,19.6,93.6-1.8,117.7-10.1c17.7-6,104.7-11.8,95,81.4c-2.7,26.3-40.8,61.6-39.4,99.9c4.5,133.9-37.3,88.1-66.9,77.4
			c0,0-177.5,93.9-228-183.4c-14.6-80.4-89.4-123.4-104.3-192.9c-8.6-39.9,8.2-67.9,39-85c45-24.9,93.5,11.1,115,60.1
			C1116.1,1939.7,1125.6,2015.7,1163,2034.9z"/>
		<path style="clip-path:url(#SVGID_00000031176062119086503130000006142479271211883399_);fill:#F4AEA6;" d="M564.4,1830.3
			c36.3-60.4,183.8-84.4,234.1-13.5c40,56.3,5.3,80.9,17.2,174c12.4,96.2,184.3,61,150,154.9c-30.6,86.1-309.6,126.6-412.5-38
			C456.8,1953.5,528.7,1889.8,564.4,1830.3z"/>
		<path style="clip-path:url(#SVGID_00000031176062119086503130000006142479271211883399_);fill:#FFFFFF;" d="M1465.2,1976.7
			c-10.8,36.6,91.1,155.8,74.7,245.5c-33.2,181.5-170,152.4-176.8,246c-6.8,93.5,161,125.8,176.2,133.3
			c54,26.4,240,20.4,282.6-223.8C1843.8,2251.8,1535.3,1740.1,1465.2,1976.7z"/>
		<path style="clip-path:url(#SVGID_00000031176062119086503130000006142479271211883399_);fill:#47849A;" d="M404,2381.4
			c-171.1,41.5-56.7,217.8-163.4,231.2c-52.2,6.6-60.5-209,5.7-308.9c84.5-127.6,139.2-86.3,152.7-20.8c2.7,13.1-37,29.6,51.9-14.8
			c80.5-40.2,217.6,45.8,228.4,174.7c6.7,80.2,55,113.4,74.7,112.9c47.6-1.3,119,89.1,30.3,95.6
			C593.6,2665.1,572.6,2340.5,404,2381.4z"/>
	</g>
</g>
</svg>
