<?xml version="1.0" encoding="utf-8"?>
<!-- Generator: Adobe Illustrator 28.1.0, SVG Export Plug-In . SVG Version: 6.00 Build 0)  -->
<svg version="1.1" id="Calque_1" xmlns="http://www.w3.org/2000/svg" xmlns:xlink="http://www.w3.org/1999/xlink" x="0px" y="0px"
	 viewBox="0 0 1717 1200" style="enable-background:new 0 0 1717 1200;" xml:space="preserve">
<style type="text/css">
	.st0{fill:#FFFFFF;}
	.st1{clip-path:url(#SVGID_00000127741100292851924220000000226646769710071471_);fill:#F4AEA6;}
	.st2{clip-path:url(#SVGID_00000063611027166285670500000010976751895973983672_);fill:#D3F0EE;}
	.st3{clip-path:url(#SVGID_00000023991210622120899760000008709643442900165565_);fill:#478499;}
	.st4{clip-path:url(#SVGID_00000157292953520446870040000013956983233545393084_);fill:#F4AEA6;}
	.st5{clip-path:url(#SVGID_00000108302033818202525610000013408499029421853609_);fill:#D3F0EE;}
	.st6{clip-path:url(#SVGID_00000175298358545577665770000011735071690681993108_);fill:#D3F0EE;}
	.st7{clip-path:url(#SVGID_00000116930706696635349310000008165035712843287205_);fill:#D3F0EE;}
	.st8{clip-path:url(#SVGID_00000116235939027097348360000015096572251399397525_);fill:#47849A;}
	.st9{clip-path:url(#SVGID_00000047052888872754289370000007427760838576471681_);fill:#47849A;}
</style>
<g id="Calque_3">
	<rect y="-1.1" class="st0" width="1717" height="1197.8"/>
</g>
<g>
	<defs>
		<rect id="SVGID_1_" y="-2.2" width="1717" height="1200"/>
	</defs>
	<clipPath id="SVGID_00000054227296353877546840000010466266704901680543_">
		<use xlink:href="#SVGID_1_"  style="overflow:visible;"/>
	</clipPath>
	<path style="clip-path:url(#SVGID_00000054227296353877546840000010466266704901680543_);fill:#F4AEA6;" d="M0,333.6
		c206.2-31,198.6-307.4,521-322c44.1-2,86.5-29.9,44.6-34.6C506.2-29.5,334.8-21,284.5,0C177.4,44.7,172.4,202.7-9.8,247.6
		C-31.1,252.9-21.8,336.9,0,333.6z"/>
</g>
<g>
	<defs>
		<rect id="SVGID_00000064317613627286814250000004784395877298299776_" y="-2.2" width="1717" height="1200"/>
	</defs>
	<clipPath id="SVGID_00000073686089487549249870000017462441503017543854_">
		<use xlink:href="#SVGID_00000064317613627286814250000004784395877298299776_"  style="overflow:visible;"/>
	</clipPath>
	<path style="clip-path:url(#SVGID_00000073686089487549249870000017462441503017543854_);fill:#D3F0EE;" d="M519.1,142.7
		C511,158.1,551.4,127,596,99.7c122.2-74.9,179.5,83.7,8.5,122.2c-102.2,23.1-118.8,42.3-95.3,168.3S375,524.8,363.1,515.5
		c-11.9-9.2-104.3-50.1,0-196.8c24.6-34.6-40.5-142.7,111.5-209.1C571.4,67.4,519.1,142.7,519.1,142.7z"/>
</g>
<g>
	<defs>
		<rect id="SVGID_00000081631385352247696420000000872615706066733754_" y="-2.2" width="1717" height="1200"/>
	</defs>
	<clipPath id="SVGID_00000174587134845854617390000015080171214810587785_">
		<use xlink:href="#SVGID_00000081631385352247696420000000872615706066733754_"  style="overflow:visible;"/>
	</clipPath>
	<path style="clip-path:url(#SVGID_00000174587134845854617390000015080171214810587785_);fill:#478499;" d="M600.6,781.5
		C446.1,866,352.3,509.4,214.3,629.3C172,666.1,200.5,731,277.7,756.5c50,16.5,96,195.3,212.1,224.6c148.4,37.5,161-29.9,126.9-87.4
		c-6.8-11.5-0.8-33,94.8-60c86.6-24.4,130.1-180.3,51.3-282.9c-49-63.8-35.7-120.9-20.8-133.8c36.1-31.1,28-146-41.9-91.1
		C549.8,444,752.8,698.2,600.6,781.5z"/>
</g>
<g>
	<defs>
		<rect id="SVGID_00000011734034998228373700000005688143035093546141_" y="-2.2" width="1717" height="1200"/>
	</defs>
	<clipPath id="SVGID_00000098216069309730391690000004239973031680042113_">
		<use xlink:href="#SVGID_00000011734034998228373700000005688143035093546141_"  style="overflow:visible;"/>
	</clipPath>
	<path style="clip-path:url(#SVGID_00000098216069309730391690000004239973031680042113_);fill:#F4AEA6;" d="M1002.6,896.8
		c3.1,42.7,50.3,78.9,69.9,95.2c14.4,12,64.6,83.2-20,123.5c-23.8,11.4-73.8-2.7-105.8,18.4c-111.9,73.6-94.6,14.1-100.9-16.8
		c0,0-172.6-102.6,37.7-290.2c61-54.4,58.8-140.6,110.3-189.5c29.6-28.1,62.2-28.4,92.9-11c44.7,25.4,39.2,85.6,8.6,129.5
		C1059.4,807.2,999.5,854.9,1002.6,896.8z"/>
</g>
<g>
	<defs>
		<rect id="SVGID_00000051342616732143565650000004304179082543809464_" y="-2.2" width="1717" height="1200"/>
	</defs>
	<clipPath id="SVGID_00000016077746207131121880000011403497535682310330_">
		<use xlink:href="#SVGID_00000051342616732143565650000004304179082543809464_"  style="overflow:visible;"/>
	</clipPath>
	<path style="clip-path:url(#SVGID_00000016077746207131121880000011403497535682310330_);fill:#D3F0EE;" d="M-5.9,949.1
		c60.8-35.6,183.8-84.4,234.1-13.5c40,56.3,5.3,80.9,17.2,174c12.4,96.2,115.4,100.4,99.2,145.8c-30.6,86.1-361.7-28.9-361.7-28.9
		L-5.9,949.1z"/>
</g>
<g>
	<defs>
		<rect id="SVGID_00000056427290553385405500000000714977846304370605_" y="-2.2" width="1717" height="1200"/>
	</defs>
	<clipPath id="SVGID_00000155861309755380719650000011226305820705570711_">
		<use xlink:href="#SVGID_00000056427290553385405500000000714977846304370605_"  style="overflow:visible;"/>
	</clipPath>
	<path style="clip-path:url(#SVGID_00000155861309755380719650000011226305820705570711_);fill:#D3F0EE;" d="M1299.3,668.5
		c-47.3,66.1-16.8,137.1-25.4,204.8c-9.6,75.7,14,114.3,40,123.4c53,18.5,134.4-6.9,78.4-186c-19.2-61.5,60-101.8,80.7-40
		c10.1,30.2,86.1,66.9,110.7-6.9c24.6-73.8,2.3-130.3-91.1-104.9c-76.3,20.7-45.1-35.2-58-53.4
		C1415.8,579,1329.2,626.7,1299.3,668.5z"/>
</g>
<g>
	<defs>
		<rect id="SVGID_00000151519221390764632310000007465459684802148750_" y="-2.2" width="1717" height="1200"/>
	</defs>
	<clipPath id="SVGID_00000003105571102512402080000008678645731599821962_">
		<use xlink:href="#SVGID_00000151519221390764632310000007465459684802148750_"  style="overflow:visible;"/>
	</clipPath>
	<path style="clip-path:url(#SVGID_00000003105571102512402080000008678645731599821962_);fill:#D3F0EE;" d="M971.1,344.1
		c34.8,55.5,26.9,144.1,51.5,178.3c24.6,34.2,70,60.3,111.5,26.9s73.5-123.9-81.5-193.7c-72.7-32.7,96.8-44.2,141.4,36.9
		c32.9,59.9,12.7,99.5-13.1,146.8c-25.8,47.3,51,71.6,95.3,6.2c64.6-95.3-7.6-185.1-89.9-267.5c-36.9-36.9,15.3-66.2,45.3-93.8
		c18.1-16.5,55-65.7,15.4-89.2s-71.9,22.3-99.9,40.7s-100.3,60-93.8-23.1s-31.5-60.3-67.6-43.1c-19.6,9.4-100.5,63.6-101.1,131.1
		C884.1,257.9,961.6,329,971.1,344.1z"/>
</g>
<g>
	<defs>
		<rect id="SVGID_00000137844517278012809920000004334423351934125492_" y="-2.2" width="1717" height="1200"/>
	</defs>
	<clipPath id="SVGID_00000109734754229792771990000014847018839216569011_">
		<use xlink:href="#SVGID_00000137844517278012809920000004334423351934125492_"  style="overflow:visible;"/>
	</clipPath>
	<path style="clip-path:url(#SVGID_00000109734754229792771990000014847018839216569011_);fill:#47849A;" d="M1720.6,708.5
		c-38.1,2.3-73,103.8-89.2,152.2c-16.1,48.4-144.1,113.4-207.5,176.8s-45.3,152.5-33.1,162.5s360.5,0,360.5,0L1720.6,708.5z"/>
</g>
<g>
	<defs>
		<rect id="SVGID_00000090271865665891836670000006549536647604483256_" y="-2.2" width="1717" height="1200"/>
	</defs>
	<clipPath id="SVGID_00000161590889866184258190000006460269424012493733_">
		<use xlink:href="#SVGID_00000090271865665891836670000006549536647604483256_"  style="overflow:visible;"/>
	</clipPath>
	<path style="clip-path:url(#SVGID_00000161590889866184258190000006460269424012493733_);fill:#47849A;" d="M1479.9-11.8
		c-27.3,31.1-17.7,47.3,14.6,55.3s75.3,36.5,49.2,108.4c0,0,7.9,144.6,35.4,157.6c29.2,13.8,43.1-21.5,56.1-38.4s27.9-52.9,81.8,0.8
		c31.2,31.1,41.6,72.3,18.2,76.9s-15.4-14.6-43.1-16.1c-42.7-2.3-86.1,36.5-145.3,1.5s-18.8-88.8-50-130.7
		c-31.1-41.9-121.1-79.2-65.3-207.5C1487.3-132.5,1479.9-11.8,1479.9-11.8z"/>
</g>
</svg>
