<?xml version="1.0" encoding="utf-8"?>
<!-- Generator: Adobe Illustrator 28.1.0, SVG Export Plug-In . SVG Version: 6.00 Build 0)  -->
<svg version="1.1" id="Calque_1" xmlns="http://www.w3.org/2000/svg" xmlns:xlink="http://www.w3.org/1999/xlink" x="0px" y="0px"
	 viewBox="0 0 1717 1200" style="enable-background:new 0 0 1717 1200;" xml:space="preserve">
<style type="text/css">
	.st0{fill:#D3F0EE;}
	.st1{clip-path:url(#SVGID_00000012450429968539223130000002516005414726650300_);fill:#F4AEA6;}
	.st2{clip-path:url(#SVGID_00000155861580846683248510000011214836326017736358_);fill:#FFFFFF;}
	.st3{clip-path:url(#SVGID_00000137840405551959393390000016662806262496374420_);fill:#478499;}
	.st4{clip-path:url(#SVGID_00000179648429247976413260000016557843353497640366_);fill:#F4AEA6;}
	.st5{clip-path:url(#SVGID_00000007395568805035556550000001727974461159091868_);fill:#FFFFFF;}
	.st6{clip-path:url(#SVGID_00000013163062422268087610000003855646226133298567_);fill:#FFFFFF;}
	.st7{clip-path:url(#SVGID_00000098187846432678735700000007580601381687452070_);fill:#FFFFFF;}
	.st8{clip-path:url(#SVGID_00000085208329717993147390000000617752461506067631_);fill:#47849A;}
	.st9{clip-path:url(#SVGID_00000082342381488184677630000002352330244817960358_);fill:#47849A;}
</style>
<rect y="-1.1" class="st0" width="1717" height="1197.8"/>
<g>
	<g>
		<defs>
			<rect id="SVGID_1_" y="-2.2" width="1717" height="1200"/>
		</defs>
		<clipPath id="SVGID_00000072264640441848749550000003151012305803229887_">
			<use xlink:href="#SVGID_1_"  style="overflow:visible;"/>
		</clipPath>
		<path style="clip-path:url(#SVGID_00000072264640441848749550000003151012305803229887_);fill:#F4AEA6;" d="M0,333.6
			c206.2-31,198.6-307.4,521-322c44.1-2,86.5-29.9,44.6-34.6c-59.4-6.5-230.8,2-281.1,23C177.4,44.7,172.4,202.7-9.8,247.6
			C-31.1,252.9-21.8,336.9,0,333.6z"/>
	</g>
</g>
<g>
	<defs>
		<rect id="SVGID_00000067218962921680022220000007473732275095097013_" y="-2.2" width="1717" height="1200"/>
	</defs>
	<clipPath id="SVGID_00000135681741845105586540000014533005632540630444_">
		<use xlink:href="#SVGID_00000067218962921680022220000007473732275095097013_"  style="overflow:visible;"/>
	</clipPath>
	<path style="clip-path:url(#SVGID_00000135681741845105586540000014533005632540630444_);fill:#FFFFFF;" d="M519.1,142.7
		c-8.1,15.4,32.3-15.7,76.9-43c122.2-74.9,179.5,83.7,8.5,122.2c-102.2,23.1-118.8,42.3-95.3,168.3S375,524.8,363.1,515.5
		c-11.9-9.2-104.3-50.1,0-196.8c24.6-34.6-40.5-142.7,111.5-209.1C571.4,67.4,519.1,142.7,519.1,142.7z"/>
</g>
<g>
	<g>
		<defs>
			<rect id="SVGID_00000176010354401816184130000012646662777074175640_" y="-2.2" width="1717" height="1200"/>
		</defs>
		<clipPath id="SVGID_00000168094389516451412420000008365281280630432404_">
			<use xlink:href="#SVGID_00000176010354401816184130000012646662777074175640_"  style="overflow:visible;"/>
		</clipPath>
		<path style="clip-path:url(#SVGID_00000168094389516451412420000008365281280630432404_);fill:#478499;" d="M600.6,781.5
			C446.1,866,352.3,509.4,214.3,629.3C172,666.1,200.5,731,277.7,756.5c50,16.5,96,195.3,212.1,224.6
			c148.4,37.5,161-29.9,126.9-87.4c-6.8-11.5-0.8-33,94.8-60c86.6-24.4,130.1-180.3,51.3-282.9C713.8,487,727.1,429.9,742,417
			c36.1-31.1,28-146-41.9-91.1C549.8,444,752.8,698.2,600.6,781.5z"/>
	</g>
</g>
<g>
	<g>
		<defs>
			<rect id="SVGID_00000046336454945243116270000009195095298985692567_" y="-2.2" width="1717" height="1200"/>
		</defs>
		<clipPath id="SVGID_00000150081776025270751140000005648421324174424232_">
			<use xlink:href="#SVGID_00000046336454945243116270000009195095298985692567_"  style="overflow:visible;"/>
		</clipPath>
		<path style="clip-path:url(#SVGID_00000150081776025270751140000005648421324174424232_);fill:#F4AEA6;" d="M1002.6,896.8
			c3.1,42.7,50.3,78.9,69.9,95.2c14.4,12,64.6,83.2-20,123.5c-23.8,11.4-73.8-2.7-105.8,18.4c-111.9,73.6-94.6,14.1-100.9-16.8
			c0,0-172.6-102.6,37.7-290.2c61-54.4,58.8-140.6,110.3-189.5c29.6-28.1,62.2-28.4,92.9-11c44.7,25.4,39.2,85.6,8.6,129.5
			C1059.4,807.2,999.5,854.9,1002.6,896.8z"/>
	</g>
</g>
<g>
	<g>
		<defs>
			<rect id="SVGID_00000175294406760466010140000009617573072830530476_" y="-2.2" width="1717" height="1200"/>
		</defs>
		<clipPath id="SVGID_00000036945009760223578420000001505939450300226747_">
			<use xlink:href="#SVGID_00000175294406760466010140000009617573072830530476_"  style="overflow:visible;"/>
		</clipPath>
		<path style="clip-path:url(#SVGID_00000036945009760223578420000001505939450300226747_);fill:#FFFFFF;" d="M-5.9,949.1
			c60.8-35.6,183.8-84.4,234.1-13.5c40,56.3,5.3,80.9,17.2,174c12.4,96.2,115.4,100.4,99.2,145.8c-30.6,86.1-361.7-28.9-361.7-28.9
			L-5.9,949.1z"/>
	</g>
</g>
<g>
	<g>
		<defs>
			<rect id="SVGID_00000034810208095912818350000008991818138622335924_" y="-2.2" width="1717" height="1200"/>
		</defs>
		<clipPath id="SVGID_00000065775785552164884190000004962546801677764744_">
			<use xlink:href="#SVGID_00000034810208095912818350000008991818138622335924_"  style="overflow:visible;"/>
		</clipPath>
		<path style="clip-path:url(#SVGID_00000065775785552164884190000004962546801677764744_);fill:#FFFFFF;" d="M1299.3,668.5
			c-47.3,66.1-16.8,137.1-25.4,204.8c-9.6,75.7,14,114.3,40,123.4c53,18.5,134.4-6.9,78.4-186c-19.2-61.5,60-101.8,80.7-40
			c10.1,30.2,86.1,66.9,110.7-6.9s2.3-130.3-91.1-104.9c-76.3,20.7-45.1-35.2-58-53.4C1415.8,579,1329.2,626.7,1299.3,668.5z"/>
	</g>
</g>
<g>
	<defs>
		<rect id="SVGID_00000093146644656467784590000004321671964569130386_" y="-2.2" width="1717" height="1200"/>
	</defs>
	<clipPath id="SVGID_00000106855837810367489940000017597099081779731336_">
		<use xlink:href="#SVGID_00000093146644656467784590000004321671964569130386_"  style="overflow:visible;"/>
	</clipPath>
	<path style="clip-path:url(#SVGID_00000106855837810367489940000017597099081779731336_);fill:#FFFFFF;" d="M971.1,344.1
		c34.8,55.5,26.9,144.1,51.5,178.3s70,60.3,111.5,26.9s73.5-123.9-81.5-193.7c-72.7-32.7,96.8-44.2,141.4,36.9
		c32.9,59.9,12.7,99.5-13.1,146.8c-25.8,47.3,51,71.6,95.3,6.2c64.6-95.3-7.6-185.1-89.9-267.5c-36.9-36.9,15.3-66.2,45.3-93.8
		c18.1-16.5,55-65.7,15.4-89.2s-71.9,22.3-99.9,40.7s-100.3,60-93.8-23.1s-31.5-60.3-67.6-43.1c-19.6,9.4-100.5,63.6-101.1,131.1
		C884.1,257.9,961.6,329,971.1,344.1z"/>
</g>
<g>
	<g>
		<defs>
			<rect id="SVGID_00000093881553306381246290000011374828865734558897_" y="-2.2" width="1717" height="1200"/>
		</defs>
		<clipPath id="SVGID_00000007409674392447609980000016637111824558571911_">
			<use xlink:href="#SVGID_00000093881553306381246290000011374828865734558897_"  style="overflow:visible;"/>
		</clipPath>
		<path style="clip-path:url(#SVGID_00000007409674392447609980000016637111824558571911_);fill:#47849A;" d="M1720.6,708.5
			c-38.1,2.3-73,103.8-89.2,152.2c-16.1,48.4-144.1,113.4-207.5,176.8s-45.3,152.5-33.1,162.5s360.5,0,360.5,0L1720.6,708.5z"/>
	</g>
</g>
<g>
	<g>
		<defs>
			<rect id="SVGID_00000158014222621757054460000016454413943016131513_" y="-2.2" width="1717" height="1200"/>
		</defs>
		<clipPath id="SVGID_00000144340032150055365360000001932090455500459193_">
			<use xlink:href="#SVGID_00000158014222621757054460000016454413943016131513_"  style="overflow:visible;"/>
		</clipPath>
		<path style="clip-path:url(#SVGID_00000144340032150055365360000001932090455500459193_);fill:#47849A;" d="M1479.9-11.8
			c-27.3,31.1-17.7,47.3,14.6,55.3s75.3,36.5,49.2,108.4c0,0,7.9,144.6,35.4,157.6c29.2,13.8,43.1-21.5,56.1-38.4
			s27.9-52.9,81.8,0.8c31.2,31.1,41.6,72.3,18.2,76.9s-15.4-14.6-43.1-16.1c-42.7-2.3-86.1,36.5-145.3,1.5s-18.8-88.8-50-130.7
			c-31.1-41.9-121.1-79.2-65.3-207.5C1487.3-132.5,1479.9-11.8,1479.9-11.8z"/>
	</g>
</g>
</svg>
