<?xml version="1.0" encoding="utf-8"?>
<!-- Generator: Adobe Illustrator 28.1.0, SVG Export Plug-In . SVG Version: 6.00 Build 0)  -->
<svg version="1.1" id="Calque_2" xmlns="http://www.w3.org/2000/svg" xmlns:xlink="http://www.w3.org/1999/xlink" x="0px" y="0px"
	 viewBox="0 0 2346 1641" style="enable-background:new 0 0 2346 1641;" xml:space="preserve">
<style type="text/css">
	.st0{fill:#030120;}
	.st1{display:none;}
	.st2{display:inline;}
	.st3{fill:#F1A11C;}
	.st4{fill:#99948C;}
</style>
<rect x="-0.5" y="-0.5" class="st0" width="2346.5" height="1641.5"/>
<g id="fond.psd_00000056413574545697369520000014145716223021783205_" class="st1">
	<defs>
		<rect id="SVGID_1_" x="-1" y="-1" width="1366" height="768"/>
	</defs>
	<clipPath id="SVGID_00000080184831102064311190000016751613456183716510_" class="st2">
		<use xlink:href="#SVGID_1_"  style="overflow:visible;"/>
	</clipPath>
	<g style="display:inline;clip-path:url(#SVGID_00000080184831102064311190000016751613456183716510_);">
		
			<image style="overflow:visible;" width="1200" height="480" id="Arrière-plan" xlink:href="1929D51E.jpg"  transform="matrix(1.1383 0 0 1.6 -1 -1)">
		</image>
	</g>
	<g style="display:inline;opacity:0.89;clip-path:url(#SVGID_00000080184831102064311190000016751613456183716510_);">
		
			<image style="overflow:visible;" width="1200" height="480" id="Calque_3" xlink:href="1929D51E.png"  transform="matrix(1.1383 0 0 1.6 -1 -1)">
		</image>
	</g>
	
		<g transform="matrix(1 0 0 1 -4.768372e-07 0)" style="display:inline;opacity:0.53;clip-path:url(#SVGID_00000080184831102064311190000016751613456183716510_);">
		
			<image style="overflow:visible;" width="1195" height="479" id="Calque_1_00000175317946564946369380000011746328615390645687_" xlink:href="1929D51A.png"  transform="matrix(1.1383 0 0 1.6 4.6917 -1)">
		</image>
	</g>
</g>
<polygon class="st3" points="1225.2,674.9 1207.1,659.1 1183.8,665.1 1193.2,643 1180.4,622.7 1204.3,624.8 1219.6,606.3 
	1225,629.7 1247.3,638.6 1226.7,650.9 "/>
<polygon class="st3" points="1128,89.6 1105.2,82 1086,96.5 1086.2,72.5 1066.5,58.7 1089.4,51.4 1096.4,28.5 1110.4,48 
	1134.4,47.6 1120.1,66.9 "/>
<polygon class="st3" points="925,494.6 902.2,487 883,501.5 883.2,477.5 863.5,463.7 886.4,456.5 893.4,433.5 907.4,453 
	931.4,452.6 917.1,471.9 "/>
<polygon class="st3" points="208,713.8 182.4,686.2 145.1,691.7 163.4,658.8 146.7,625.1 183.6,632.3 210.6,606 215.1,643.4 
	248.4,660.8 214.3,676.7 "/>
<polygon class="st3" points="131.8,602.3 112.5,588.1 89.8,595.9 97.3,573.1 82.8,554 106.9,554.1 120.6,534.4 127.9,557.3 
	150.9,564.3 131.3,578.3 "/>
<polygon class="st3" points="1299.2,144.6 1263.2,133.4 1233.6,156.7 1233.2,119 1201.9,98.1 1237.6,86 1247.9,49.8 1270.4,80 
	1308,78.6 1286.2,109.3 "/>
<polygon class="st3" points="358.1,703.5 342.9,704 334.7,716.8 329.6,702.5 314.9,698.7 326.9,689.4 326,674.2 338.6,682.7 
	352.7,677.2 348.5,691.8 "/>
<polygon class="st3" points="1274.8,602.2 1263.6,592 1248.8,595.4 1255.1,581.6 1247.3,568.6 1262.3,570.3 1272.3,558.9 
	1275.3,573.7 1289.3,579.6 1276.1,587.1 "/>
<polygon class="st3" points="1151.1,185.5 1135.9,186 1127.7,198.8 1122.6,184.5 1107.9,180.7 1119.9,171.4 1119,156.2 
	1131.6,164.7 1145.7,159.2 1141.5,173.8 "/>
<polygon class="st3" points="459.8,130.8 441.7,115 418.5,120.9 427.9,98.9 415,78.6 439,80.7 454.3,62.2 459.6,85.6 482,94.5 
	461.3,106.8 "/>
<polygon class="st3" points="344.5,347.9 308.6,336.7 279,359.9 278.6,322.3 247.3,301.3 283,289.3 293.2,253.1 315.7,283.2 
	353.3,281.8 331.6,312.6 "/>
<polygon class="st3" points="1082.5,595.9 1046.6,584.7 1017,607.9 1016.6,570.3 985.3,549.3 1021,537.3 1031.2,501.1 1053.7,531.2 
	1091.3,529.8 1069.6,560.6 "/>
<polygon class="st3" points="1035.8,431.6 1021.2,427.7 1009.6,437.5 1008.8,422.4 995.9,414.5 1010,409 1013.6,394.3 1023.1,406.1 
	1038.2,404.9 1030,417.6 "/>
<polygon class="st3" points="300,159.2 288.8,148.9 274.1,152.4 280.3,138.6 272.5,125.6 287.6,127.3 297.5,115.8 300.5,130.7 
	314.5,136.6 301.3,144.1 "/>
<polygon class="st3" points="460,289.2 448.8,278.9 434.1,282.4 440.3,268.6 432.5,255.6 447.6,257.3 457.5,245.8 460.5,260.7 
	474.5,266.6 461.3,274.1 "/>
<polygon class="st3" points="961.2,657.2 946.6,653.3 935.1,663.1 934.3,648 921.3,640.1 935.5,634.6 939,619.9 948.6,631.7 
	963.7,630.4 955.4,643.2 "/>
<path class="st4" d="M167.8,272.5c-7.4,1.3-15,2-22.8,2c-72.3,0-131-58.7-131-131s58.7-131,131-131c27.5,0,53.1,8.5,74.2,23
	c-61.5,10.8-108.2,64.5-108.2,129C110.9,209.3,133.4,248.9,167.8,272.5z"/>
<polygon class="st3" points="2213.1,682.8 2195,667 2171.7,672.9 2181.1,650.8 2168.3,630.5 2192.2,632.7 2207.5,614.2 
	2212.9,637.6 2235.2,646.5 2214.6,658.8 "/>
<polygon class="st3" points="2115.9,97.5 2093.1,89.9 2073.9,104.3 2074.1,80.3 2054.4,66.6 2077.3,59.3 2084.3,36.3 2098.3,55.9 
	2122.3,55.4 2108,74.8 "/>
<polygon class="st3" points="1912.9,502.5 1890.1,494.9 1870.9,509.4 1871.1,485.3 1851.4,471.6 1874.3,464.3 1881.3,441.4 
	1895.3,460.9 1919.3,460.5 1905,479.8 "/>
<polygon class="st3" points="2287.1,152.5 2251.1,141.3 2221.5,164.5 2221.1,126.9 2189.8,105.9 2225.5,93.9 2235.8,57.6 
	2258.3,87.8 2295.9,86.4 2274.1,117.1 "/>
<polygon class="st3" points="2262.7,610.1 2251.5,599.8 2236.7,603.3 2243,589.5 2235.2,576.5 2250.2,578.2 2260.2,566.7 
	2263.2,581.6 2277.2,587.5 2264,595 "/>
<polygon class="st3" points="2139,193.4 2123.8,193.9 2115.7,206.6 2110.5,192.4 2095.8,188.5 2107.8,179.2 2106.9,164.1 
	2119.5,172.6 2133.6,167.1 2129.4,181.6 "/>
<polygon class="st3" points="2070.4,603.8 2034.5,592.6 2004.9,615.8 2004.5,578.2 1973.2,557.2 2008.9,545.1 2019.1,508.9 
	2041.6,539.1 2079.2,537.7 2057.5,568.4 "/>
<polygon class="st3" points="2023.7,439.4 2009.1,435.5 1997.6,445.4 1996.7,430.3 1983.8,422.3 1997.9,416.9 2001.5,402.2 
	2011,413.9 2026.1,412.7 2017.9,425.4 "/>
<polygon class="st3" points="1949.1,665 1934.5,661.1 1923,671 1922.2,655.8 1909.2,647.9 1923.4,642.5 1926.9,627.8 1936.5,639.5 
	1951.6,638.3 1943.3,651 "/>
<polygon class="st3" points="2194.1,1584.5 2176,1568.7 2152.7,1574.7 2162.1,1552.6 2149.3,1532.3 2173.2,1534.4 2188.5,1516 
	2193.9,1539.4 2216.2,1548.2 2195.6,1560.6 "/>
<polygon class="st3" points="2096.9,999.2 2074.1,991.6 2054.9,1006.1 2055.1,982.1 2035.4,968.3 2058.3,961.1 2065.3,938.1 
	2079.3,957.6 2103.3,957.2 2089,976.5 "/>
<polygon class="st3" points="1893.9,1404.2 1871.1,1396.7 1851.9,1411.1 1852.1,1387.1 1832.4,1373.3 1855.3,1366.1 1862.3,1343.1 
	1876.3,1362.7 1900.3,1362.2 1886,1381.5 "/>
<polygon class="st3" points="2268.1,1054.2 2232.1,1043 2202.5,1066.3 2202.1,1028.7 2170.8,1007.7 2206.5,995.6 2216.8,959.4 
	2239.3,989.6 2276.9,988.2 2255.1,1018.9 "/>
<polygon class="st3" points="2243.7,1511.8 2232.5,1501.6 2217.7,1505 2224,1491.2 2216.2,1478.3 2231.2,1479.9 2241.2,1468.5 
	2244.2,1483.3 2258.2,1489.3 2245,1496.7 "/>
<polygon class="st3" points="2120,1095.1 2104.8,1095.6 2096.7,1108.4 2091.5,1094.1 2076.8,1090.3 2088.8,1081 2087.9,1065.9 
	2100.5,1074.4 2114.6,1068.9 2110.4,1083.4 "/>
<polygon class="st3" points="2051.4,1505.5 2015.5,1494.3 1985.9,1517.6 1985.5,1479.9 1954.2,1459 1989.9,1446.9 2000.1,1410.7 
	2022.6,1440.9 2060.2,1439.5 2038.5,1470.2 "/>
<polygon class="st3" points="2004.7,1341.2 1990.1,1337.3 1978.6,1347.1 1977.7,1332 1964.8,1324.1 1978.9,1318.7 1982.5,1303.9 
	1992,1315.7 2007.1,1314.5 1998.9,1327.2 "/>
<polygon class="st3" points="1930.1,1566.8 1915.5,1562.9 1904,1572.7 1903.2,1557.6 1890.2,1549.7 1904.4,1544.3 1907.9,1529.5 
	1917.5,1541.3 1932.6,1540.1 1924.3,1552.8 "/>
<polygon class="st3" points="1201.1,1584.1 1183,1568.3 1159.7,1574.3 1169.1,1552.2 1156.3,1531.9 1180.2,1534 1195.5,1515.5 
	1200.9,1539 1223.2,1547.8 1202.6,1560.1 "/>
<polygon class="st3" points="1103.9,998.8 1081.1,991.2 1061.9,1005.7 1062.1,981.7 1042.4,967.9 1065.3,960.7 1072.3,937.7 
	1086.3,957.2 1110.3,956.8 1096,976.1 "/>
<polygon class="st3" points="900.9,1403.8 878.1,1396.2 858.9,1410.7 859.1,1386.7 839.4,1372.9 862.3,1365.7 869.3,1342.7 
	883.3,1362.2 907.3,1361.8 893,1381.1 "/>
<polygon class="st3" points="1275.1,1053.8 1239.1,1042.6 1209.5,1065.9 1209.1,1028.2 1177.8,1007.3 1213.5,995.2 1223.8,959 
	1246.3,989.2 1283.9,987.8 1262.1,1018.5 "/>
<polygon class="st3" points="1250.7,1511.4 1239.5,1501.2 1224.7,1504.6 1231,1490.8 1223.2,1477.8 1238.2,1479.5 1248.2,1468.1 
	1251.2,1482.9 1265.2,1488.8 1252,1496.3 "/>
<polygon class="st3" points="1127,1094.7 1111.8,1095.2 1103.7,1108 1098.5,1093.7 1083.8,1089.9 1095.8,1080.6 1094.9,1065.5 
	1107.5,1074 1121.6,1068.4 1117.4,1083 "/>
<polygon class="st3" points="1058.4,1505.1 1022.5,1493.9 992.9,1517.2 992.5,1479.5 961.2,1458.5 996.9,1446.5 1007.1,1410.3 
	1029.6,1440.5 1067.2,1439.1 1045.5,1469.8 "/>
<polygon class="st3" points="1011.7,1340.8 997.1,1336.9 985.6,1346.7 984.7,1331.6 971.8,1323.7 985.9,1318.2 989.5,1303.5 
	999,1315.3 1014.1,1314.1 1005.9,1326.8 "/>
<polygon class="st3" points="937.1,1566.4 922.5,1562.5 911,1572.3 910.2,1557.2 897.2,1549.3 911.4,1543.8 914.9,1529.1 
	924.5,1540.9 939.6,1539.7 931.3,1552.4 "/>
<polygon class="st3" points="373.1,1618.1 355,1602.3 331.7,1608.3 341.1,1586.2 328.3,1565.9 352.2,1568 367.5,1549.5 372.9,1573 
	395.2,1581.8 374.6,1594.1 "/>
<polygon class="st3" points="275.9,1032.8 253.1,1025.2 233.9,1039.7 234.1,1015.7 214.4,1001.9 237.3,994.7 244.3,971.7 
	258.3,991.2 282.3,990.8 268,1010.1 "/>
<polygon class="st3" points="72.9,1437.8 50.1,1430.2 30.9,1444.7 31.1,1420.7 11.4,1406.9 34.3,1399.7 41.3,1376.7 55.3,1396.2 
	79.3,1395.8 65,1415.1 "/>
<polygon class="st3" points="447.1,1087.8 411.1,1076.6 381.5,1099.9 381.1,1062.2 349.8,1041.3 385.5,1029.2 395.8,993 
	418.3,1023.2 455.9,1021.8 434.1,1052.5 "/>
<polygon class="st3" points="422.7,1545.4 411.5,1535.2 396.7,1538.6 403,1524.8 395.2,1511.8 410.2,1513.5 420.2,1502.1 
	423.2,1516.9 437.2,1522.8 424,1530.3 "/>
<polygon class="st3" points="299,1128.7 283.8,1129.2 275.7,1142 270.5,1127.7 255.8,1123.9 267.8,1114.6 266.9,1099.5 279.5,1108 
	293.6,1102.4 289.4,1117 "/>
<polygon class="st3" points="230.4,1539.1 194.5,1527.9 164.9,1551.2 164.5,1513.5 133.2,1492.5 168.9,1480.5 179.1,1444.3 
	201.6,1474.5 239.2,1473.1 217.5,1503.8 "/>
<polygon class="st3" points="183.7,1374.8 169.1,1370.9 157.6,1380.7 156.7,1365.6 143.8,1357.7 157.9,1352.2 161.5,1337.5 
	171,1349.3 186.1,1348.1 177.9,1360.8 "/>
<polygon class="st3" points="109.1,1600.4 94.5,1596.5 83,1606.3 82.2,1591.2 69.2,1583.3 83.4,1577.8 86.9,1563.1 96.5,1574.9 
	111.6,1573.7 103.3,1586.4 "/>
<polygon class="st3" points="1637.2,874.8 1611.5,847.2 1574.3,852.7 1592.6,819.8 1575.9,786.1 1612.8,793.3 1639.7,767 
	1644.2,804.4 1677.6,821.8 1643.5,837.7 "/>
<polygon class="st3" points="1561,763.3 1541.6,749.1 1518.9,756.9 1526.5,734.1 1512,715 1536,715.1 1549.8,695.4 1557,718.3 
	1580,725.3 1560.5,739.3 "/>
<polygon class="st3" points="1787.2,864.5 1772.1,865 1763.9,877.8 1758.8,863.5 1744.1,859.7 1756.1,850.4 1755.2,835.2 
	1767.7,843.7 1781.8,838.2 1777.6,852.8 "/>
<polygon class="st3" points="655.6,771.4 692.8,776.5 718.3,748.8 724.8,785.8 759.1,801.4 725.9,819.1 721.7,856.6 694.5,830.4 
	657.7,838 674.1,804.1 "/>
<polygon class="st3" points="785.1,809.7 809,808.5 821.7,788.1 830.2,810.5 853.5,816.2 834.8,831.3 836.6,855.2 816.5,842.1 
	794.3,851.2 800.6,828 "/>
<polygon class="st3" points="545.7,874.1 557.1,864.2 555.4,849.1 568.4,856.9 582.2,850.6 578.8,865.4 589,876.6 574,877.9 
	566.5,891.1 560.6,877.1 "/>
<polygon class="st3" points="1582.3,230.2 1611.3,206.2 1607.9,168.7 1639.7,188.8 1674.3,174.1 1665,210.5 1689.8,238.9 
	1652.2,241.3 1632.9,273.6 1619,238.6 "/>
<polygon class="st3" points="1697.9,160.5 1713.2,142 1706.7,118.9 1729,127.7 1748.9,114.3 1747.4,138.3 1766.3,153.1 
	1743.1,159.1 1734.8,181.6 1721.9,161.4 "/>
<polygon class="st3" points="1584.1,380.6 1584.5,365.5 1572.2,356.6 1586.7,352.3 1591.3,337.8 1600,350.3 1615.1,350.3 
	1605.9,362.3 1610.6,376.7 1596.3,371.7 "/>
<polygon class="st3" points="1407.9,1211.9 1436.9,1187.9 1433.5,1150.4 1465.3,1170.5 1500,1155.7 1490.6,1192.2 1515.4,1220.6 
	1477.8,1223 1458.5,1255.3 1444.6,1220.3 "/>
<polygon class="st3" points="1523.6,1142.2 1538.9,1123.7 1532.3,1100.6 1554.6,1109.4 1574.6,1096 1573.1,1120 1591.9,1134.8 
	1568.7,1140.8 1560.4,1163.3 1547.6,1143.1 "/>
<polygon class="st3" points="1409.7,1362.3 1410.1,1347.2 1397.8,1338.3 1412.3,1334 1417,1319.5 1425.6,1332 1440.7,1332 
	1431.5,1344 1436.2,1358.4 1422,1353.4 "/>
<polygon class="st3" points="561.9,1238.9 590.9,1214.9 587.5,1177.4 619.3,1197.5 654,1182.7 644.6,1219.2 669.4,1247.6 
	631.8,1250 612.5,1282.3 598.6,1247.3 "/>
<polygon class="st3" points="677.6,1169.2 692.9,1150.7 686.3,1127.6 708.6,1136.4 728.6,1123 727.1,1147 745.9,1161.8 
	722.7,1167.8 714.4,1190.3 701.6,1170.1 "/>
<polygon class="st3" points="563.7,1389.3 564.1,1374.2 551.8,1365.3 566.3,1361 571,1346.5 579.6,1359 594.7,1359 585.5,1371 
	590.2,1385.4 576,1380.4 "/>
<polygon class="st3" points="624.9,319.9 653.9,295.9 650.5,258.4 682.3,278.5 717,263.7 707.6,300.2 732.4,328.6 694.8,331 
	675.5,363.3 661.6,328.3 "/>
<polygon class="st3" points="740.6,250.2 755.9,231.7 749.3,208.6 771.6,217.4 791.6,204 790.1,228 808.9,242.8 785.7,248.8 
	777.4,271.3 764.6,251.1 "/>
<polygon class="st3" points="626.7,470.3 627.1,455.2 614.8,446.3 629.3,442 634,427.5 642.6,440 657.7,440 648.5,452 653.2,466.4 
	639,461.4 "/>
</svg>
